<svg xmlns="http://www.w3.org/2000/svg" viewBox="0 0 431.89 101.29"><defs><style>.cls-1,.cls-3{font-size:36px;fill:#d11328;}.cls-1,.cls-3,.cls-5,.cls-7{font-family:Lato-Regular, Lato;}.cls-2{letter-spacing:-0.02em;}.cls-3{letter-spacing:-0.08em;}.cls-4{letter-spacing:0em;}.cls-5,.cls-7{font-size:60px;}.cls-5,.cls-8{fill:#d11227;}.cls-5{letter-spacing:-0.1em;}.cls-6{letter-spacing:0em;}.cls-7,.cls-9{fill:#fff;}</style></defs><g id="Layer_2" data-name="Layer 2"><g id="Layer_1-2" data-name="Layer 1"><text class="cls-1" transform="translate(40.9 93.35)">Upg<tspan class="cls-2" x="64.55" y="0">r</tspan><tspan x="78.37" y="0">ade</tspan></text><text class="cls-3" transform="translate(180.69 93.35)">Y<tspan class="cls-4" x="19.76" y="0">our</tspan></text><text class="cls-1" transform="translate(259.88 94.71)">Gadgets</text><text class="cls-5" transform="translate(158.02 51.77)">T<tspan class="cls-6" x="29.1" y="0">ech</tspan></text><text class="cls-7" transform="translate(288.73 52.19)">Store</text><text class="cls-7" transform="translate(47.98 51.49)">saro</text><path class="cls-8" d="M26.22,49.46V42.82c-.44.13-.88.24-1.34.33v6.31a2.39,2.39,0,1,0,1.34,0Z"/><path class="cls-8" d="M35.36,44a2.38,2.38,0,0,0-2.29,1.71H31.49v-6h-.11a10.65,10.65,0,0,1-1.23,1.09V47h2.92A2.38,2.38,0,1,0,35.36,44Z"/><path class="cls-9" d="M10.34,31.11A12.24,12.24,0,0,1,22.59,18.87V8.52a22.28,22.28,0,0,0-2.6.15l-1.31,7.81-2.8,1.05-6.1-5A22.64,22.64,0,0,0,5,17l.11.05,4.7,6.4-1.2,2.74L.38,27s-.09.43-.19,1.19c0,.24,0,.47-.07.69a2.45,2.45,0,0,1,0,.27,22.38,22.38,0,0,0,0,4,20.87,20.87,0,0,0,.37,2.16H.54l3.32.32L8.37,36l1.24,2.73L5.12,45l-.06.09,0,0H5l0,.07H5a22.84,22.84,0,0,0,5,4.61l6.06-5,2.81,1,1.3,7.61,0,.1a21.76,21.76,0,0,0,2.44.14V43.35A12.24,12.24,0,0,1,10.34,31.11Z"/><path class="cls-8" d="M.1,29.11c-.06.66-.1,1.33-.1,2s0,1.32.09,2h0A22.38,22.38,0,0,1,.1,29.11Z"/><path class="cls-8" d="M24.88,12.94v6.11a11.88,11.88,0,0,1,1.34.32V12.94a2.38,2.38,0,1,0-1.34,0Z"/><path class="cls-8" d="M43,28.75a2.4,2.4,0,0,0-2.29,1.72H34.88c0,.21,0,.42,0,.63s0,.47,0,.71h5.87A2.38,2.38,0,1,0,43,28.75Z"/><path class="cls-8" d="M31.28,22.39v-6h1.58a2.39,2.39,0,1,0,0-1.34H29.94v6.22a10.93,10.93,0,0,1,1.32,1.13Z"/><path class="cls-8" d="M39.07,23.57v1.57H33.35A12.67,12.67,0,0,1,34,26.48h6.42V23.57a2.39,2.39,0,1,0-1.34,0Z"/><path class="cls-8" d="M40.35,38.8V35.89H33.92a12.88,12.88,0,0,1-.67,1.34H39V38.8a2.39,2.39,0,1,0,1.35,0Z"/><path class="cls-9" d="M24.06,27.49a1.25,1.25,0,1,0-1.25-1.25A1.25,1.25,0,0,0,24.06,27.49Z"/><path class="cls-9" d="M24.06,37.28A1.25,1.25,0,1,0,22.81,36,1.25,1.25,0,0,0,24.06,37.28Z"/><path class="cls-9" d="M28.43,32.38a1.25,1.25,0,1,0-1.27-1.22A1.25,1.25,0,0,0,28.43,32.38Z"/><path class="cls-8" d="M24,28.13h0a1.82,1.82,0,0,0,.52-.08,1.82,1.82,0,0,1-.52.08Z"/><polygon class="cls-8" points="25.96 26.24 25.96 26.24 25.96 26.24 25.96 26.24"/><path class="cls-8" d="M30.29,31.37c0-.08,0-.15,0-.23h0C30.3,31.22,30.29,31.29,30.29,31.37Z"/><path class="cls-8" d="M22.63,37.27a1.85,1.85,0,0,1-.41-.8h-5v-.65h5a.57.57,0,0,1,0-.13v0a1.38,1.38,0,0,1,.08-.27v0a1.83,1.83,0,0,1,.29-.51V31.58H21.4v-.65h1.19v-3.5l0,.05a2.66,2.66,0,0,1-.29-.45v0a2.25,2.25,0,0,1-.08-.24l0,0a.13.13,0,0,0,0-.06h-5V26h5s0-.08,0-.12v0a1.38,1.38,0,0,1,.08-.27v0a1.83,1.83,0,0,1,.29-.51V19.56a11.58,11.58,0,0,0,0,23.16V37.23Z"/><path class="cls-8" d="M23.88,37.91l.18,0,.19,0h-.19Z"/><path class="cls-8" d="M26.57,31.58h0A1.87,1.87,0,0,0,28.41,33h0A1.89,1.89,0,0,1,26.57,31.58Z"/><path class="cls-8" d="M25.94,36.27h0l0,.19Z"/><path class="cls-8" d="M25.94,36.25h0A1.49,1.49,0,0,0,26,36h0A1.49,1.49,0,0,1,25.94,36.25Z"/><path class="cls-8" d="M25.61,37.12h0l0,0Z"/><polygon class="cls-8" points="25.84 36.67 25.85 36.67 25.84 36.67 25.84 36.67"/><path class="cls-8" d="M25.7,37h0a.59.59,0,0,0,0-.08h0l0,.07Z"/><polygon class="cls-8" points="23.15 27.89 23.15 27.89 23.14 27.89 23.15 27.89"/><path class="cls-9" d="M34.17,31.14h0a11.59,11.59,0,0,0-11-11.57h-.59v5.49h0l.05-.05.14-.15.09-.08.13-.1.11-.06.15-.08.1-.05.26-.08h.1a1.86,1.86,0,0,1,.34,0,1.9,1.9,0,0,1,1.9,1.9h0a2.4,2.4,0,0,1,0,.28c0,.07,0,.13,0,.2a2.25,2.25,0,0,1-.08.24,1.88,1.88,0,0,1-.44.64,1.24,1.24,0,0,1-.22.18.18.18,0,0,1-.07,0,1.83,1.83,0,0,1-.24.13l-.09,0-.17.05a1.82,1.82,0,0,1-.52.08h0a1.43,1.43,0,0,1-.29,0h0l-.05,0-.16,0-.11,0h0a.88.88,0,0,1-.2-.09h0l0,0h0a1.46,1.46,0,0,1-.38-.27h0l0,0-.1-.11h0l0-.05v3.5h3.94a1.89,1.89,0,0,1,3.77.21h0c0,.08,0,.15,0,.23a.06.06,0,0,0,0,0,1.16,1.16,0,0,1,0,.18v0a.6.6,0,0,1-.06.19v0a2.26,2.26,0,0,1-.11.22l-.09.13-.06.1-.12.13-.06.07-.08.07-.1.08-.18.12-.08.05-.12.06-.08,0-.26.08h0l-.16,0h-.21a1.87,1.87,0,0,1-1.84-1.45h-4v3.27h0a1.85,1.85,0,0,1,1.47-.72A1.91,1.91,0,0,1,26,36h0a1.49,1.49,0,0,1,0,.21h0v0h0l0,.19v0a1.21,1.21,0,0,1,0,.18h0a1.63,1.63,0,0,1-.11.23h0a.59.59,0,0,1,0,.08h0l-.09.14h0l0,0a.1.1,0,0,1,0,.05h0a2.09,2.09,0,0,1-.14.17l-.1.09-.08.06a1.55,1.55,0,0,1-.41.25l0,0a1.89,1.89,0,0,1-.52.13h0l-.19,0-.18,0a.47.47,0,0,1-.17,0l-.21,0-.15-.05-.18-.09L23,37.6a1.3,1.3,0,0,1-.23-.18l-.15-.15,0,0v5.49h0A11.58,11.58,0,0,0,34.17,31.14Z"/></g></g></svg>