<svg id="Layer_1" data-name="Layer 1" xmlns="http://www.w3.org/2000/svg" viewBox="0 0 431.89 274.55"><defs><style>.cls-1,.cls-3{font-size:36px;fill:#d11328;}.cls-1,.cls-3,.cls-5,.cls-7,.cls-8{font-family:Lato-Regular, Lato;}.cls-2{letter-spacing:-0.02em;}.cls-3{letter-spacing:-0.08em;}.cls-4{letter-spacing:0em;}.cls-5,.cls-7,.cls-8{font-size:60px;}.cls-11,.cls-5{fill:#d11227;}.cls-5{letter-spacing:-0.1em;}.cls-6{letter-spacing:0em;}.cls-7{fill:#1d1d1b;}.cls-10,.cls-8{fill:#15151d;}.cls-9{fill:none;}.cls-12{fill:#fff;}</style></defs><text class="cls-1" transform="translate(40.9 266.6)">Upg<tspan class="cls-2" x="64.55" y="0">r</tspan><tspan x="78.37" y="0">ade</tspan></text><text class="cls-3" transform="translate(180.69 266.6)">Y<tspan class="cls-4" x="19.76" y="0">our</tspan></text><text class="cls-1" transform="translate(259.88 267.96)">Gadgets</text><text class="cls-5" transform="translate(158.02 225.02)">T<tspan class="cls-6" x="29.1" y="0">ech</tspan></text><text class="cls-7" transform="translate(288.73 225.44)">Store</text><text class="cls-8" transform="translate(47.98 224.75)">saro</text><path class="cls-9" d="M246,203a7.56,7.56,0,0,0-.27,1l0,.16c0,.15,0,.31-.05.47H227.7v2.35h18.05a6.82,6.82,0,0,0,6.63,5.25c.23,0,.45,0,.67,0h0A6.47,6.47,0,0,0,254,212l.18,0a5.92,5.92,0,0,0,.81-.27.59.59,0,0,0,.14-.06,5.07,5.07,0,0,0,.57-.29l.17-.08.1-.06a7.85,7.85,0,0,0,.66-.47,3.2,3.2,0,0,0,.27-.22c.13-.11.26-.22.38-.34s.35-.39.51-.59h0a1.27,1.27,0,0,0,.13-.19l.07-.1a5.39,5.39,0,0,0,.33-.5h0l.06-.12.1-.17a7.54,7.54,0,0,0,.36-.82h0l0,0c.07-.22.14-.44.19-.67,0,0,0,0,0-.06,0-.23.09-.46.12-.7,0,0,0,0,0-.05h0a6.62,6.62,0,0,0,0-.77h0a6.82,6.82,0,0,0-12.15-4.26v0a7.11,7.11,0,0,0-1,1.82Zm6.4-2.14a4.5,4.5,0,1,1-4.5,4.5A4.49,4.49,0,0,1,252.38,200.81Z" transform="translate(-31.12 -106.39)"/><path class="cls-9" d="M246,167.63a7.56,7.56,0,0,0-.27,1l0,.16c0,.14,0,.28-.05.42H227.7v2.36h18.05c0,.07,0,.15.05.22a.83.83,0,0,0,0,.15,6.41,6.41,0,0,0,.31.87l0,.06a6.82,6.82,0,0,0,1.06,1.63h0a4.38,4.38,0,0,0,.36.39l.14.13h0a6.5,6.5,0,0,0,1.34,1h0l.07,0h0l0,0c.23.12.46.23.7.33h0l.4.13.57.16.19,0h0l.09,0h0l.6.08c.2,0,.41,0,.61,0a6.79,6.79,0,0,0,2-.31l.46-.17.17-.06c.13-.05.25-.12.37-.18l.23-.11c.12-.06.23-.14.35-.21l.21-.13c.13-.08.24-.18.36-.27l.17-.12c.17-.14.33-.29.48-.44a6.65,6.65,0,0,0,.83-1,6.19,6.19,0,0,0,.63-1.16,4.62,4.62,0,0,0,.23-.62,6.55,6.55,0,0,0,.28-1.33h0c0-.23,0-.47,0-.7a6.83,6.83,0,0,0-6.83-6.83,7.24,7.24,0,0,0-1.24.12l-.33.06h0a8.26,8.26,0,0,0-.92.3l-.38.17c-.19.09-.37.19-.55.29l-.38.24c-.16.11-.31.23-.47.36l-.34.28c-.17.16-.33.34-.49.52l-.2.21h0a7,7,0,0,0-1,1.81A1,1,0,0,1,246,167.63Zm6.4-2.14a4.5,4.5,0,1,1-4.5,4.5A4.49,4.49,0,0,1,252.38,165.49Z" transform="translate(-31.12 -106.39)"/><path class="cls-9" d="M242.79,189.26h18.62a6.84,6.84,0,0,0,6.63,5.22,4.58,4.58,0,0,0,.53,0l.23,0,.58-.08.2,0a6.86,6.86,0,0,0,.94-.29l.27-.11.46-.22a2.61,2.61,0,0,0,.28-.17,6.51,6.51,0,0,0,.64-.43c.12-.09.24-.18.35-.28l.29-.26c.08-.08.15-.17.22-.25s.3-.32.43-.49.16-.23.24-.34.21-.31.3-.47a8.76,8.76,0,0,0,.39-.82s0,0,0,0a5.39,5.39,0,0,0,.22-.68,1.24,1.24,0,0,0,0-.16c.05-.21.1-.42.13-.64a.78.78,0,0,1,0-.16,7.52,7.52,0,0,0,.05-.82h0a6.82,6.82,0,0,0-13.6-.75H242.79ZM268,183.15a4.5,4.5,0,1,1-4.43,4.57A4.5,4.5,0,0,1,268,183.15Z" transform="translate(-31.12 -106.39)"/><path class="cls-10" d="M203,187.87a43.68,43.68,0,0,1,43.68-43.68V107.3a81.11,81.11,0,0,0-9.27.53l-4.66,27.86-10,3.74L201,121.51a81.13,81.13,0,0,0-17.22,16l.39.17,16.76,22.86-4.3,9.78h0l-29.16,2.73s-.34,1.55-.66,4.26a79.23,79.23,0,0,0-.25,17.53,72.31,72.31,0,0,0,1.29,7.72H168l11.85,1.16,16.1,1.56,4.42,9.73-16,22.4-.23.31-.11.16,0,.06-.18.24,0,0a81.32,81.32,0,0,0,17.87,16.46l21.6-17.95,10,3.71,4.65,27.13.07.39a83,83,0,0,0,8.69.47V231.55A43.68,43.68,0,0,1,203,187.87Z" transform="translate(-31.12 -106.39)"/><path class="cls-11" d="M166.8,177.33a79.74,79.74,0,0,0-.7,10.54c0,2.37.11,4.71.31,7h0l.11,0A79.23,79.23,0,0,1,166.8,177.33Z" transform="translate(-31.12 -106.39)"/><path class="cls-11" d="M254.86,123.06v21.78a45,45,0,0,1,4.78,1.17V123.06a8.51,8.51,0,1,0-4.78,0Z" transform="translate(-31.12 -106.39)"/><path class="cls-11" d="M319.6,179.47a8.5,8.5,0,0,0-8.16,6.11H290.51c0,.75.06,1.49.06,2.25s0,1.7-.08,2.54h20.95a8.5,8.5,0,1,0,8.16-10.9Z" transform="translate(-31.12 -106.39)"/><path class="cls-11" d="M259.64,253.32V229.65a45,45,0,0,1-4.78,1.16v22.51a8.51,8.51,0,1,0,4.78,0Z" transform="translate(-31.12 -106.39)"/><path class="cls-11" d="M277.69,156.76V135.32h5.62a8.51,8.51,0,1,0,0-4.78h-10.4v22.18a42,42,0,0,1,4.69,4Z" transform="translate(-31.12 -106.39)"/><path class="cls-11" d="M305.47,161v5.62H285.06a42.82,42.82,0,0,1,2.29,4.78h22.9V161a8.51,8.51,0,1,0-4.78,0Z" transform="translate(-31.12 -106.39)"/><path class="cls-11" d="M310,215.31v-10.4H287.1a42.83,42.83,0,0,1-2.4,4.79h20.54v5.61a8.51,8.51,0,1,0,4.78,0Z" transform="translate(-31.12 -106.39)"/><path class="cls-11" d="M292.22,233.76a8.53,8.53,0,0,0-8.16,6.12h-5.61V218.45h-.4a44.91,44.91,0,0,1-4.38,3.89v22.32h10.39a8.51,8.51,0,1,0,8.16-10.9Z" transform="translate(-31.12 -106.39)"/><path class="cls-12" d="M317.64,196.5H303.48v0H300v1.06h17.72a6,6,0,0,1-.06-.85C317.63,196.63,317.64,196.56,317.64,196.5Z" transform="translate(-31.12 -106.39)"/><circle class="cls-10" cx="221.26" cy="63.6" r="4.5"/><circle class="cls-10" cx="221.26" cy="98.92" r="4.5"/><path class="cls-10" d="M268.12,192.15a4.5,4.5,0,1,0-4.58-4.43A4.5,4.5,0,0,0,268.12,192.15Z" transform="translate(-31.12 -106.39)"/><path class="cls-11" d="M259.18,170.7a6.55,6.55,0,0,1-.28,1.33,4.62,4.62,0,0,1-.23.62,6.19,6.19,0,0,1-.63,1.16,6.65,6.65,0,0,1-.83,1c-.15.15-.31.3-.48.44l-.17.12c-.12.09-.23.19-.36.27l-.21.13c-.12.07-.23.15-.35.21l-.23.11c-.12.06-.24.13-.37.18l-.17.06-.46.17a6.79,6.79,0,0,1-2,.31c-.2,0-.41,0-.61,0l-.6-.08h0a6.77,6.77,0,0,0,8-6.72h0c0,.23,0,.47,0,.7Z" transform="translate(-31.12 -106.39)"/><path class="cls-11" d="M274.82,188.48a7.37,7.37,0,0,0,.05-.82h0A7.52,7.52,0,0,1,274.82,188.48Z" transform="translate(-31.12 -106.39)"/><path class="cls-11" d="M252.38,212.16c.23,0,.45,0,.67,0-.22,0-.44,0-.67,0a6.82,6.82,0,0,1-6.63-5.25H227.7v-2.35h17.93c0-.16,0-.32.05-.47l0-.16a7.56,7.56,0,0,1,.27-1l0-.09a7.11,7.11,0,0,1,1-1.82V189.26h-4.27V186.9h4.27V174.27l.18.19a6.82,6.82,0,0,1-1.06-1.63l0-.06a6.41,6.41,0,0,1-.31-.87.83.83,0,0,1,0-.15c0-.07,0-.15-.05-.22H227.7v-2.36h17.93c0-.14,0-.28.05-.42l0-.16a7.56,7.56,0,0,1,.27-1,1,1,0,0,0,0-.1,7,7,0,0,1,1-1.81V145.9a41.75,41.75,0,0,0,0,83.5V209.61A6.83,6.83,0,0,0,252.38,212.16Z" transform="translate(-31.12 -106.39)"/><path class="cls-11" d="M261.41,189.26h0a6.82,6.82,0,0,0,6.63,5.23,4.55,4.55,0,0,0,.53,0,4.58,4.58,0,0,1-.53,0A6.84,6.84,0,0,1,261.41,189.26Z" transform="translate(-31.12 -106.39)"/><path class="cls-11" d="M259.16,206.15h0c0,.24-.07.47-.12.7C259.09,206.62,259.13,206.39,259.16,206.15Z" transform="translate(-31.12 -106.39)"/><path class="cls-11" d="M258.83,207.58c.07-.22.14-.44.19-.67h0c0,.23-.12.45-.19.67Z" transform="translate(-31.12 -106.39)"/><path class="cls-11" d="M259.17,206.1h0a6.45,6.45,0,0,0,0-.76h0A6.62,6.62,0,0,1,259.17,206.1Z" transform="translate(-31.12 -106.39)"/><path class="cls-11" d="M258.45,208.44h0l-.1.17Z" transform="translate(-31.12 -106.39)"/><path class="cls-11" d="M258,209.23h0l-.07.1A.36.36,0,0,0,258,209.23Z" transform="translate(-31.12 -106.39)"/><polygon class="cls-11" points="227.69 101.22 227.69 101.22 227.69 101.23 227.69 101.22"/><path class="cls-11" d="M249.16,176h0l0,0,0,0Z" transform="translate(-31.12 -106.39)"/><polygon class="cls-11" points="217.97 69.57 217.97 69.57 217.96 69.57 217.97 69.57"/><path class="cls-10" d="M288.81,187.66h0a41.75,41.75,0,0,0-39.6-41.7c-.71,0-1.42,0-2.15,0v19.82h0l.2-.21c.16-.18.32-.36.49-.52l.34-.28c.16-.13.31-.25.47-.36l.38-.24c.18-.1.36-.2.55-.29l.38-.17a8.26,8.26,0,0,1,.92-.3h0l.33-.06a7.24,7.24,0,0,1,1.24-.12,6.83,6.83,0,0,1,6.83,6.83h0a6.77,6.77,0,0,1-8,6.72h0l-.09,0h0l-.19,0-.57-.16-.4-.13h0c-.24-.1-.47-.21-.7-.33l0,0h0l-.07,0h0a6.5,6.5,0,0,1-1.34-1h0l-.14-.13a4.38,4.38,0,0,1-.36-.39h0l-.18-.19V186.9h14.21a6.82,6.82,0,0,1,13.6.75h0a7.37,7.37,0,0,1-.05.82.78.78,0,0,0,0,.16c0,.22-.08.43-.13.64a1.24,1.24,0,0,1,0,.16,5.39,5.39,0,0,1-.22.68s0,0,0,0a8.76,8.76,0,0,1-.39.82c-.09.16-.2.31-.3.47s-.15.23-.24.34-.28.33-.43.49-.14.17-.22.25l-.29.26c-.11.1-.23.19-.35.28a6.51,6.51,0,0,1-.64.43,2.61,2.61,0,0,1-.28.17l-.46.22-.27.11a6.86,6.86,0,0,1-.94.29l-.2,0-.58.08-.23,0a4.55,4.55,0,0,1-.53,0,6.82,6.82,0,0,1-6.63-5.23H247.06v11.8a6.82,6.82,0,0,1,12.15,4.26h0a6.45,6.45,0,0,1,0,.76h0s0,0,0,.05h0c0,.24-.07.47-.12.7,0,0,0,0,0,.06h0c0,.23-.12.45-.19.67h0l0,0h0a7.54,7.54,0,0,1-.36.82h0l-.1.17-.06.12h0a5.39,5.39,0,0,1-.33.5h0a.36.36,0,0,1-.07.1,1.27,1.27,0,0,1-.13.19h0c-.16.2-.33.4-.51.59s-.25.23-.38.34a3.2,3.2,0,0,1-.27.22,7.85,7.85,0,0,1-.66.47l-.1.06-.17.08a5.07,5.07,0,0,1-.57.29.59.59,0,0,1-.14.06,5.92,5.92,0,0,1-.81.27l-.18,0a6.47,6.47,0,0,1-.88.15h0c-.22,0-.44,0-.67,0a6.83,6.83,0,0,1-5.32-2.55v19.81A41.76,41.76,0,0,0,288.81,187.66Z" transform="translate(-31.12 -106.39)"/><path class="cls-9" d="M53.41,305.23a1.12,1.12,0,0,0-.08.26v.05a.37.37,0,0,0,0,.11h-5v.66h5a.13.13,0,0,1,0,.06l0,0a2.25,2.25,0,0,0,.08.24v0a2.31,2.31,0,0,0,.29.45h0l.1.11,0,0a1.59,1.59,0,0,0,.37.27h0l.2.09h0l.11,0,.16.05h.07a1.43,1.43,0,0,0,.29,0h0a2.25,2.25,0,0,0,.52-.07l.17-.06.09,0,.24-.14.07,0,.22-.19a1.79,1.79,0,0,0,.44-.64,2.25,2.25,0,0,0,.08-.24c0-.06,0-.13,0-.19a2.85,2.85,0,0,0,0-.29h0a1.89,1.89,0,0,0-1.9-1.89,1.87,1.87,0,0,0-.34,0l-.1,0h0l-.26.08-.1.05-.15.08-.11.07-.13.09-.09.08-.14.15,0,.06h0a1.86,1.86,0,0,0-.29.51Zm1.77-.6a1.25,1.25,0,1,1-1.25,1.25A1.25,1.25,0,0,1,55.18,304.63Z" transform="translate(-31.12 -106.39)"/><path class="cls-9" d="M52.52,311.22h5.17a1.89,1.89,0,0,0,1.84,1.45h.21l.16,0,.05,0a1.12,1.12,0,0,0,.26-.08l.08,0,.12-.06.08-.05.18-.11.1-.08.08-.08.06-.06.12-.14.06-.1.09-.13.11-.22v0a.6.6,0,0,0,.06-.19v0a1.16,1.16,0,0,0,0-.18.06.06,0,0,1,0,0c0-.08,0-.15,0-.23h0a1.89,1.89,0,0,0-3.77-.21H52.52Zm7-1.69a1.25,1.25,0,1,1-1.22,1.27A1.25,1.25,0,0,1,59.5,309.53Z" transform="translate(-31.12 -106.39)"/><path class="cls-9" d="M53.41,315a1.38,1.38,0,0,0-.08.27v0a.62.62,0,0,0,0,.13h-5v.66h5a2,2,0,0,0,.41.8l.15.14a1.3,1.3,0,0,0,.23.18l.16.1a1,1,0,0,0,.18.09l.15.05.21.06.17,0h.38a1.89,1.89,0,0,0,.52-.13l0,0a1.52,1.52,0,0,0,.41-.24l.08-.07.1-.09a1.15,1.15,0,0,0,.14-.17l0,0,0,0,.09-.15h0l0,0v0h0a1.15,1.15,0,0,0,.1-.23h0a.64.64,0,0,1,0-.07l0-.12v0l0-.19h0a1.64,1.64,0,0,0,0-.22h0a1.9,1.9,0,0,0-1.9-1.89,1.84,1.84,0,0,0-1.47.71h0a1.61,1.61,0,0,0-.29.51Zm1.77-.59a1.25,1.25,0,1,1-1.25,1.25A1.25,1.25,0,0,1,55.18,314.43Z" transform="translate(-31.12 -106.39)"/><path class="cls-11" d="M57.34,329.1v-6.64a11.91,11.91,0,0,1-1.34.33v6.31a2.39,2.39,0,1,0,1.34,0Z" transform="translate(-31.12 -106.39)"/><path class="cls-11" d="M66.48,323.62a2.38,2.38,0,0,0-2.29,1.71H62.61v-6H62.5a11.76,11.76,0,0,1-1.23,1.1v6.25h2.92a2.38,2.38,0,1,0,2.29-3.05Z" transform="translate(-31.12 -106.39)"/><path class="cls-10" d="M41.46,310.75a12.24,12.24,0,0,1,12.25-12.24V288.17a24.72,24.72,0,0,0-2.6.14l-1.31,7.81L47,297.17l-6.1-5a22.64,22.64,0,0,0-4.83,4.49l.11.05,4.7,6.41-1.21,2.74-8.17.76s-.09.44-.19,1.2c0,.23,0,.46-.07.69a2.28,2.28,0,0,1,0,.26,22.35,22.35,0,0,0,0,4,20.43,20.43,0,0,0,.37,2.16h.05l3.32.32,4.51.44,1.24,2.73-4.49,6.28-.06.08,0,0v0l-.05.06h0a22.6,22.6,0,0,0,5,4.61l6.06-5,2.81,1,1.3,7.61,0,.11c.8.08,1.61.13,2.44.13V323A12.25,12.25,0,0,1,41.46,310.75Z" transform="translate(-31.12 -106.39)"/><path class="cls-11" d="M31.22,308.75c-.06.66-.1,1.33-.1,2s0,1.32.09,2h0A22.35,22.35,0,0,1,31.22,308.75Z" transform="translate(-31.12 -106.39)"/><path class="cls-11" d="M56,292.58v6.11a10.08,10.08,0,0,1,1.34.33v-6.44a2.38,2.38,0,1,0-1.34,0Z" transform="translate(-31.12 -106.39)"/><path class="cls-11" d="M74.15,308.4a2.38,2.38,0,0,0-2.29,1.71H66c0,.21,0,.42,0,.63s0,.48,0,.71h5.87a2.38,2.38,0,1,0,2.29-3.05Z" transform="translate(-31.12 -106.39)"/><path class="cls-11" d="M62.4,302v-6H64a2.38,2.38,0,1,0,0-1.34H61.06v6.22A10.93,10.93,0,0,1,62.38,302Z" transform="translate(-31.12 -106.39)"/><path class="cls-11" d="M70.19,303.21v1.57H64.47a12.83,12.83,0,0,1,.64,1.35h6.42v-2.92a2.39,2.39,0,1,0-1.34,0Z" transform="translate(-31.12 -106.39)"/><path class="cls-11" d="M71.46,318.44v-2.91H65a12.88,12.88,0,0,1-.67,1.34h5.75v1.57a2.39,2.39,0,1,0,1.34,0Z" transform="translate(-31.12 -106.39)"/><path class="cls-10" d="M55.18,307.13a1.25,1.25,0,1,0-1.25-1.25A1.25,1.25,0,0,0,55.18,307.13Z" transform="translate(-31.12 -106.39)"/><path class="cls-10" d="M55.18,316.93a1.25,1.25,0,1,0-1.25-1.25A1.25,1.25,0,0,0,55.18,316.93Z" transform="translate(-31.12 -106.39)"/><path class="cls-10" d="M59.55,312a1.25,1.25,0,1,0-1.27-1.23A1.26,1.26,0,0,0,59.55,312Z" transform="translate(-31.12 -106.39)"/><path class="cls-11" d="M55.13,307.77h0a2.25,2.25,0,0,0,.52-.08,2.25,2.25,0,0,1-.52.07Z" transform="translate(-31.12 -106.39)"/><polygon class="cls-11" points="25.96 199.49 25.96 199.49 25.96 199.49 25.96 199.49 25.96 199.49 25.96 199.49"/><path class="cls-11" d="M61.41,311c0-.08,0-.15,0-.23h0C61.42,310.86,61.41,310.93,61.41,311Z" transform="translate(-31.12 -106.39)"/><path class="cls-11" d="M55,317.56l.18,0,.19,0H55Z" transform="translate(-31.12 -106.39)"/><path class="cls-11" d="M53.75,316.92a2,2,0,0,1-.41-.8h-5v-.66h5a.62.62,0,0,1,0-.13v0a1.38,1.38,0,0,1,.08-.27v0a1.61,1.61,0,0,1,.29-.51v-3.27H52.52v-.65h1.19v-3.5l0,.05a2.31,2.31,0,0,1-.29-.45v0a2.25,2.25,0,0,1-.08-.24l0,0a.13.13,0,0,0,0-.06h-5v-.66h5a.37.37,0,0,1,0-.11v-.05a1.12,1.12,0,0,1,.08-.26v0a1.86,1.86,0,0,1,.29-.51V299.2a11.58,11.58,0,1,0,0,23.16v-5.49Z" transform="translate(-31.12 -106.39)"/><path class="cls-11" d="M56.67,316.84l.06-.07h0l0,0Z" transform="translate(-31.12 -106.39)"/><path class="cls-11" d="M57.69,311.22h0a1.88,1.88,0,0,0,1.84,1.46h0A1.89,1.89,0,0,1,57.69,311.22Z" transform="translate(-31.12 -106.39)"/><path class="cls-11" d="M57,316.12h0l0,.12Z" transform="translate(-31.12 -106.39)"/><path class="cls-11" d="M57.06,315.9h0a1.64,1.64,0,0,0,0-.22h0A1.64,1.64,0,0,1,57.06,315.9Z" transform="translate(-31.12 -106.39)"/><polygon class="cls-11" points="25.84 209.93 25.85 209.93 25.84 209.93 25.84 209.93"/><path class="cls-11" d="M56.82,316.62h0l0,0h0l0,0Z" transform="translate(-31.12 -106.39)"/><polygon class="cls-11" points="23.17 201.16 23.17 201.16 23.18 201.17 23.17 201.16 23.17 201.16"/><polygon class="cls-11" points="23.15 201.15 23.15 201.15 23.14 201.15 23.15 201.15"/><path class="cls-10" d="M65.29,310.78h0a11.59,11.59,0,0,0-11-11.57h-.59v5.49h0l0-.06.14-.15.09-.08.13-.09.11-.07.15-.08.1-.05.26-.08h0l.1,0a1.87,1.87,0,0,1,.34,0,1.89,1.89,0,0,1,1.9,1.89h0a2.85,2.85,0,0,1,0,.29c0,.06,0,.13,0,.19a2.25,2.25,0,0,1-.08.24,1.79,1.79,0,0,1-.44.64l-.22.19-.07,0-.24.14-.09,0-.17.06a2.25,2.25,0,0,1-.52.08h0a1.43,1.43,0,0,1-.29,0h-.07l-.16-.05-.11,0h0l-.2-.09h0a1.59,1.59,0,0,1-.37-.27l0,0-.1-.11h0l0-.05v3.5h3.94a1.89,1.89,0,0,1,3.77.21h0c0,.08,0,.15,0,.23a.06.06,0,0,0,0,0,1.16,1.16,0,0,1,0,.18v0a.6.6,0,0,1-.06.19v0l-.11.22-.09.13-.06.1-.12.14-.06.06-.08.08-.1.08-.18.11-.08.05-.12.06-.08,0a1.12,1.12,0,0,1-.26.08l-.05,0-.16,0h-.21a1.88,1.88,0,0,1-1.84-1.46h-4v3.27h0a1.84,1.84,0,0,1,1.47-.71,1.9,1.9,0,0,1,1.9,1.89h0a1.64,1.64,0,0,1,0,.22h0l0,.19v0h0l0,.12a.64.64,0,0,0,0,.07h0a1.15,1.15,0,0,1-.1.23h0v0h0l0,0h0l-.09.15h0l-.06.07a1.15,1.15,0,0,1-.14.17l-.1.09-.08.07a1.52,1.52,0,0,1-.41.24l0,0a1.89,1.89,0,0,1-.52.13h0l-.19,0-.18,0-.17,0-.21-.06-.15-.05a1,1,0,0,1-.18-.09l-.16-.1a1.3,1.3,0,0,1-.23-.18l-.15-.14,0-.05v5.49h0A11.59,11.59,0,0,0,65.29,310.78Z" transform="translate(-31.12 -106.39)"/></svg>