<svg id="Layer_1" data-name="Layer 1" xmlns="http://www.w3.org/2000/svg" viewBox="0 0 162 163.59"><defs><style>.cls-1{fill:none;}.cls-2{fill:#15151d;}.cls-3{fill:#d11227;}.cls-4{fill:#fff;}</style></defs><path class="cls-1" d="M248.65,229.36a6.23,6.23,0,0,0-.28,1l0,.16c0,.14,0,.28,0,.42H230.36v2.36h18c0,.08,0,.15.05.22a.83.83,0,0,0,0,.15,6.45,6.45,0,0,0,.32.87l0,.06a6.84,6.84,0,0,0,1.05,1.64h0l.36.38.14.13h0a6.78,6.78,0,0,0,1.34,1h0l.07,0,0,0h0a6.36,6.36,0,0,0,.7.33h0l.41.14a4.74,4.74,0,0,0,.57.15l.18,0h0l.09,0h0l.6.08c.2,0,.41,0,.62,0a6.84,6.84,0,0,0,2-.31l.46-.17.17-.06.37-.18.22-.1.35-.22.22-.13.35-.26.17-.13c.17-.14.33-.29.49-.44a8.11,8.11,0,0,0,.83-1,8,8,0,0,0,.63-1.15c.08-.21.16-.42.23-.63a7.29,7.29,0,0,0,.27-1.33h0a5.37,5.37,0,0,0,0-.7,6.83,6.83,0,0,0-6.83-6.83,6.46,6.46,0,0,0-1.25.13l-.33.06h0a7.1,7.1,0,0,0-.92.31l-.38.17c-.19.09-.37.18-.54.28l-.38.24a4.17,4.17,0,0,0-.47.36c-.12.09-.24.18-.35.28s-.33.34-.49.52l-.19.21h0a6.86,6.86,0,0,0-1,1.82Zm6.4-2.14a4.5,4.5,0,1,1-4.5,4.5A4.5,4.5,0,0,1,255.05,227.22Z" transform="translate(-168.77 -168.12)"/><path class="cls-1" d="M245.46,251h18.62a6.82,6.82,0,0,0,6.63,5.22l.53,0,.22,0a5.4,5.4,0,0,0,.58-.09l.21-.05a6.37,6.37,0,0,0,.94-.29l.26-.11a3.88,3.88,0,0,0,.46-.22l.29-.17a6.9,6.9,0,0,0,.63-.42l.35-.29.29-.26.23-.24a5,5,0,0,0,.42-.5c.09-.11.16-.23.24-.34s.21-.31.3-.47a6.92,6.92,0,0,0,.4-.82s0,0,0,0c.09-.23.16-.46.23-.69a.83.83,0,0,1,0-.15c.05-.22.09-.43.12-.65a.88.88,0,0,0,0-.16,5.55,5.55,0,0,0,.06-.82h0a6.83,6.83,0,0,0-13.61-.76H245.46Zm25.17-6.11a4.5,4.5,0,1,1-4.42,4.57A4.5,4.5,0,0,1,270.63,244.88Z" transform="translate(-168.77 -168.12)"/><path class="cls-1" d="M248.65,264.69a6.23,6.23,0,0,0-.28,1l0,.16c0,.15,0,.3-.05.46H230.36v2.36h18a6.83,6.83,0,0,0,6.64,5.24q.33,0,.66,0h0a6.08,6.08,0,0,0,.87-.16l.18,0a7,7,0,0,0,.81-.27l.15-.06.56-.29.17-.09.1-.06a6.11,6.11,0,0,0,.67-.46l.27-.23.37-.34a7.31,7.31,0,0,0,.52-.59h0l.13-.18.07-.1c.11-.17.22-.34.32-.51h0l.06-.11.1-.17a6.17,6.17,0,0,0,.37-.83h0v0c.08-.22.14-.44.2-.67,0,0,0,0,0-.06a5.38,5.38,0,0,0,.12-.7.07.07,0,0,0,0-.05h0a6.49,6.49,0,0,0,.05-.77h0a6.82,6.82,0,0,0-12.15-4.26v0a7,7,0,0,0-1,1.82Zm6.4-2.15a4.5,4.5,0,1,1-4.5,4.5A4.51,4.51,0,0,1,255.05,262.54Z" transform="translate(-168.77 -168.12)"/><path class="cls-2" d="M205.66,249.6a43.68,43.68,0,0,1,43.68-43.68V169a81.16,81.16,0,0,0-9.28.53l-4.66,27.87-10,3.74-21.75-17.93a81.13,81.13,0,0,0-17.22,16l.39.17,16.77,22.86-4.31,9.78-29.15,2.73s-.35,1.55-.67,4.26a79.88,79.88,0,0,0-.25,17.53,69.85,69.85,0,0,0,1.3,7.72l.17,0,11.84,1.15,16.1,1.57,4.42,9.72-16,22.4-.23.32-.11.16,0,.05-.17.24,0,0a81.3,81.3,0,0,0,17.87,16.46l21.6-17.94,10,3.7,4.64,27.14.07.38a80.68,80.68,0,0,0,8.7.47V293.28A43.67,43.67,0,0,1,205.66,249.6Z" transform="translate(-168.77 -168.12)"/><path class="cls-3" d="M169.46,239.06a81.48,81.48,0,0,0-.69,10.54c0,2.37.1,4.72.31,7h0l.11,0A79.88,79.88,0,0,1,169.46,239.06Z" transform="translate(-168.77 -168.12)"/><path class="cls-3" d="M257.52,184.79v21.79a42.33,42.33,0,0,1,4.79,1.16v-23a8.51,8.51,0,1,0-4.79,0Z" transform="translate(-168.77 -168.12)"/><path class="cls-3" d="M322.26,241.2a8.52,8.52,0,0,0-8.16,6.12H293.17c0,.74.06,1.49.06,2.24s0,1.7-.08,2.54h21a8.51,8.51,0,1,0,8.16-10.9Z" transform="translate(-168.77 -168.12)"/><path class="cls-3" d="M262.31,315.05V291.38a42.33,42.33,0,0,1-4.79,1.16v22.51a8.51,8.51,0,1,0,4.79,0Z" transform="translate(-168.77 -168.12)"/><path class="cls-3" d="M280.36,218.49V197.06H286a8.51,8.51,0,1,0,0-4.79h-10.4v22.18a45.28,45.28,0,0,1,4.7,4Z" transform="translate(-168.77 -168.12)"/><path class="cls-3" d="M308.13,222.71v5.61H287.72a43.75,43.75,0,0,1,2.3,4.78h22.89V222.71a8.51,8.51,0,1,0-4.78,0Z" transform="translate(-168.77 -168.12)"/><path class="cls-3" d="M312.69,277V266.65H289.76a43.55,43.55,0,0,1-2.4,4.78H307.9V277a8.51,8.51,0,1,0,4.79,0Z" transform="translate(-168.77 -168.12)"/><path class="cls-3" d="M294.89,295.5a8.5,8.5,0,0,0-8.16,6.11h-5.61V280.18h-.41a45.16,45.16,0,0,1-4.38,3.9V306.4h10.4a8.5,8.5,0,1,0,8.16-10.9Z" transform="translate(-168.77 -168.12)"/><path class="cls-4" d="M320.3,258.23H302.64v1h17.71a7.91,7.91,0,0,1-.06-.84C320.29,258.36,320.3,258.29,320.3,258.23Z" transform="translate(-168.77 -168.12)"/><circle class="cls-2" cx="86.28" cy="63.6" r="4.5"/><circle class="cls-2" cx="86.28" cy="98.92" r="4.5"/><path class="cls-2" d="M270.78,253.88a4.5,4.5,0,1,0-4.57-4.43A4.5,4.5,0,0,0,270.78,253.88Z" transform="translate(-168.77 -168.12)"/><path class="cls-3" d="M261.84,232.43a7.29,7.29,0,0,1-.27,1.33c-.07.21-.15.42-.23.63a8,8,0,0,1-.63,1.15,8.11,8.11,0,0,1-.83,1c-.16.15-.32.3-.49.44l-.17.13-.35.26-.22.13-.35.22-.22.1-.37.18-.17.06-.46.17a6.84,6.84,0,0,1-2,.31c-.21,0-.42,0-.62,0l-.6-.08h0a7,7,0,0,0,1.22.12,6.83,6.83,0,0,0,6.83-6.83h0a5.37,5.37,0,0,1,0,.7Z" transform="translate(-168.77 -168.12)"/><path class="cls-3" d="M277.48,250.21a5.55,5.55,0,0,0,.06-.82h0A5.55,5.55,0,0,1,277.48,250.21Z" transform="translate(-168.77 -168.12)"/><path class="cls-3" d="M255.05,273.89c.22,0,.44,0,.66-.05q-.33,0-.66,0a6.83,6.83,0,0,1-6.64-5.24h-18v-2.36h17.93c0-.16,0-.31.05-.46l0-.16a6.23,6.23,0,0,1,.28-1l0-.1a7,7,0,0,1,1-1.82V251h-4.27v-2.36h4.27V236c.05.07.12.13.17.2a6.84,6.84,0,0,1-1.05-1.64l0-.06a6.45,6.45,0,0,1-.32-.87.83.83,0,0,1,0-.15c0-.07,0-.14-.05-.22h-18V230.9H248.3c0-.14,0-.28,0-.42l0-.16a6.23,6.23,0,0,1,.28-1l0-.09a6.86,6.86,0,0,1,1-1.82V207.63a41.75,41.75,0,0,0,0,83.5V271.34A6.78,6.78,0,0,0,255.05,273.89Z" transform="translate(-168.77 -168.12)"/><path class="cls-3" d="M264.08,251h0a6.83,6.83,0,0,0,6.64,5.24c.18,0,.35,0,.53,0l-.53,0A6.82,6.82,0,0,1,264.08,251Z" transform="translate(-168.77 -168.12)"/><path class="cls-3" d="M261.82,267.88h0a5.38,5.38,0,0,1-.12.7A5.38,5.38,0,0,0,261.82,267.88Z" transform="translate(-168.77 -168.12)"/><path class="cls-3" d="M261.49,269.31c.08-.22.14-.44.2-.67h0c-.06.23-.12.45-.2.67Z" transform="translate(-168.77 -168.12)"/><path class="cls-3" d="M261.83,267.83h0a6.33,6.33,0,0,0,.05-.76h0A6.49,6.49,0,0,1,261.83,267.83Z" transform="translate(-168.77 -168.12)"/><path class="cls-3" d="M261.11,270.18h0l-.1.17Z" transform="translate(-168.77 -168.12)"/><path class="cls-3" d="M260.63,271h0l-.07.1A.36.36,0,0,1,260.63,271Z" transform="translate(-168.77 -168.12)"/><polygon class="cls-3" points="92.71 101.22 92.71 101.22 92.71 101.22 92.71 101.22"/><path class="cls-3" d="M251.82,237.73l0,0h0Z" transform="translate(-168.77 -168.12)"/><polygon class="cls-3" points="82.98 69.57 82.98 69.57 82.98 69.57 82.98 69.57"/><path class="cls-2" d="M291.48,249.39h0a41.77,41.77,0,0,0-39.6-41.71c-.71,0-1.43-.05-2.15-.05v19.82h0l.19-.21c.16-.18.32-.35.49-.52s.23-.19.35-.28a4.17,4.17,0,0,1,.47-.36l.38-.24c.17-.1.35-.19.54-.28l.38-.17a7.1,7.1,0,0,1,.92-.31h0l.33-.06a6.46,6.46,0,0,1,1.25-.13,6.83,6.83,0,0,1,6.83,6.83h0a6.83,6.83,0,0,1-6.83,6.83,7,7,0,0,1-1.22-.12h0l-.09,0h0l-.18,0a4.74,4.74,0,0,1-.57-.15l-.41-.14h0a6.36,6.36,0,0,1-.7-.33h0l0,0-.07,0h0a6.78,6.78,0,0,1-1.34-1h0l-.14-.13-.36-.38h0c-.05-.07-.12-.13-.17-.2v12.63h14.2a6.83,6.83,0,0,1,13.61.76h0a5.55,5.55,0,0,1-.06.82.88.88,0,0,1,0,.16c0,.22-.07.43-.12.65a.83.83,0,0,0,0,.15c-.07.23-.14.46-.23.69,0,0,0,0,0,0a6.92,6.92,0,0,1-.4.82c-.09.16-.2.32-.3.47s-.15.23-.24.34a5,5,0,0,1-.42.5l-.23.24-.29.26-.35.29a6.9,6.9,0,0,1-.63.42l-.29.17a3.88,3.88,0,0,1-.46.22l-.26.11a6.37,6.37,0,0,1-.94.29l-.21.05a5.4,5.4,0,0,1-.58.09l-.22,0c-.18,0-.35,0-.53,0a6.83,6.83,0,0,1-6.64-5.24H249.73v11.8a6.82,6.82,0,0,1,12.15,4.26h0a6.33,6.33,0,0,1-.05.76h0a.07.07,0,0,1,0,.05h0a5.38,5.38,0,0,1-.12.7s0,0,0,.06h0c-.06.23-.12.45-.2.67h0v0h0a6.17,6.17,0,0,1-.37.83h0l-.1.17-.06.11h0c-.1.17-.21.34-.32.51h0a.36.36,0,0,0-.07.1l-.13.18h0a7.31,7.31,0,0,1-.52.59l-.37.34-.27.23a6.11,6.11,0,0,1-.67.46l-.1.06-.17.09-.56.29-.15.06a7,7,0,0,1-.81.27l-.18,0a6.08,6.08,0,0,1-.87.16h0c-.22,0-.44.05-.66.05a6.78,6.78,0,0,1-5.32-2.55v19.82A41.76,41.76,0,0,0,291.48,249.39Z" transform="translate(-168.77 -168.12)"/></svg>