<svg xmlns="http://www.w3.org/2000/svg" viewBox="0 0 431.89 274.64"><defs><style>.cls-1,.cls-3{font-size:36px;}.cls-1,.cls-3,.cls-5,.cls-7,.cls-8{fill:#fff;}.cls-1,.cls-3,.cls-5,.cls-7{font-family:Lato-Regular, Lato;}.cls-2{letter-spacing:-0.02em;}.cls-3{letter-spacing:-0.08em;}.cls-4{letter-spacing:0em;}.cls-5,.cls-7{font-size:60px;}.cls-5{letter-spacing:-0.1em;}.cls-6{letter-spacing:0em;}</style></defs><g id="Layer_2" data-name="Layer 2"><g id="Layer_1-2" data-name="Layer 1"><text class="cls-1" transform="translate(40.9 266.7)">Upg<tspan class="cls-2" x="64.55" y="0">r</tspan><tspan x="78.37" y="0">ade</tspan></text><text class="cls-3" transform="translate(180.69 266.7)">Y<tspan class="cls-4" x="19.76" y="0">our</tspan></text><text class="cls-1" transform="translate(259.88 268.06)">Gadgets</text><text class="cls-5" transform="translate(158.02 225.12)">T<tspan class="cls-6" x="29.1" y="0">ech</tspan></text><text class="cls-7" transform="translate(288.73 225.54)">Store</text><text class="cls-7" transform="translate(47.98 224.85)">saro</text><path class="cls-8" d="M172,81.48A43.68,43.68,0,0,1,215.67,37.8V.91a81,81,0,0,0-9.27.53L201.74,29.3l-10,3.74L170,15.12a81.08,81.08,0,0,0-17.21,16l.39.17,16.76,22.86L165.62,64l-29.16,2.73s-.34,1.55-.67,4.26h0a81.48,81.48,0,0,0-.69,10.54c0,2.37.11,4.71.31,7h0l.12,0a67.54,67.54,0,0,0,1.29,7.72H137l11.85,1.16L165,98.92l4.42,9.73-16,22.4-.23.31-.12.16,0,.06-.18.24,0,0a81.32,81.32,0,0,0,17.87,16.46l21.59-18,10,3.71,4.65,27.13.06.39a83.32,83.32,0,0,0,8.7.47V125.16A43.68,43.68,0,0,1,172,81.48Z"/><path class="cls-8" d="M223.86,16.67V38.45a45,45,0,0,1,4.78,1.17V16.67a8.51,8.51,0,1,0-4.78,0Z"/><path class="cls-8" d="M288.59,73.08a8.49,8.49,0,0,0-8.15,6.12H259.51c0,.74.05,1.48.05,2.24s0,1.7-.07,2.54h20.95a8.5,8.5,0,1,0,8.15-10.9Z"/><path class="cls-8" d="M228.64,146.93V123.26a45,45,0,0,1-4.78,1.16v22.51a8.5,8.5,0,1,0,4.78,0Z"/><path class="cls-8" d="M246.69,50.37V28.93h5.61a8.51,8.51,0,1,0,0-4.78H241.91V46.33a42.88,42.88,0,0,1,4.69,4Z"/><path class="cls-8" d="M274.46,54.58V60.2h-20.4A42.82,42.82,0,0,1,256.35,65h22.9V54.58a8.51,8.51,0,1,0-4.79,0Z"/><path class="cls-8" d="M279,108.92V98.52H256.1a42.83,42.83,0,0,1-2.4,4.79h20.54v5.61a8.5,8.5,0,1,0,4.78,0Z"/><path class="cls-8" d="M261.22,127.37a8.53,8.53,0,0,0-8.16,6.12h-5.61V112.06H247a44.8,44.8,0,0,1-4.37,3.89v22.32h10.39a8.51,8.51,0,1,0,8.16-10.9Z"/><polygon class="cls-8" points="243.48 81.49 243.48 81.49 243.48 81.49 243.48 81.49"/><circle class="cls-8" cx="221.38" cy="63.6" r="4.5"/><circle class="cls-8" cx="221.38" cy="98.92" r="4.5"/><path class="cls-8" d="M237,76.76a4.5,4.5,0,1,0,4.57,4.42A4.5,4.5,0,0,0,237,76.76Z"/><path class="cls-8" d="M257.81,81.27h0a41.75,41.75,0,0,0-39.6-41.7c-.71,0-1.43-.05-2.15-.05a41.75,41.75,0,1,0,0,83.5v0A41.76,41.76,0,0,0,257.81,81.27Zm-14,1c0,.22-.07.43-.12.64,0,0,0,.11,0,.16-.06.23-.14.46-.22.68,0,0,0,0,0,0a6.89,6.89,0,0,1-.4.82c-.09.16-.19.31-.3.47l-.23.34c-.13.17-.28.33-.43.49s-.14.17-.22.25l-.29.26-.35.28a6.51,6.51,0,0,1-.64.43l-.28.17-.47.22-.26.11a7.32,7.32,0,0,1-.94.29l-.2,0-.58.08-.23,0a4.58,4.58,0,0,1-.53,0,6.83,6.83,0,0,1-6.63-5.22H211.79V80.51h18.47a6.83,6.83,0,0,1,13.61.75h0a7.52,7.52,0,0,1-.05.82ZM196.7,62.78h17.93c0-.14,0-.28.05-.42l0-.16a6.2,6.2,0,0,1,.27-1l0-.09a6.67,6.67,0,0,1,1-1.82h0l.2-.21a4.79,4.79,0,0,1,.49-.52l.34-.28a5.32,5.32,0,0,1,.47-.36c.12-.09.25-.16.38-.24l.54-.29.38-.17c.3-.11.61-.22.92-.3h0c.1,0,.22,0,.33-.06a7.14,7.14,0,0,1,1.24-.12,6.83,6.83,0,0,1,6.83,6.83c0,.23,0,.47,0,.7h0l-.28,1.33a6.56,6.56,0,0,1-.23.62,6.19,6.19,0,0,1-.63,1.16,6.65,6.65,0,0,1-.83,1c-.15.15-.32.3-.48.44l-.17.12c-.12.09-.24.19-.36.27l-.21.13c-.12.07-.23.15-.35.21l-.23.11c-.12.06-.24.13-.37.18l-.17.06-.46.17a6.79,6.79,0,0,1-2,.31c-.21,0-.41,0-.62,0l-.59-.08h0l-.08,0h0l-.19,0-.57-.16-.4-.13h0c-.24-.1-.47-.21-.7-.33l0,0h0l-.07,0h0a6.85,6.85,0,0,1-1.35-1h0l-.13-.13a4.38,4.38,0,0,1-.36-.39h0a6.82,6.82,0,0,1-1.06-1.63l0-.06a8.18,8.18,0,0,1-.32-.87.83.83,0,0,0,0-.15c0-.07,0-.15,0-.22H196.7Zm18,37.72h-18V98.15h17.92c0-.16,0-.32.06-.47l0-.16a6.2,6.2,0,0,1,.27-1l0-.09a6.83,6.83,0,0,1,1-1.82v0a6.82,6.82,0,0,1,12.15,4.26h0c0,.26,0,.51,0,.77h0a.09.09,0,0,0,0,.05c0,.24-.07.47-.12.7,0,0,0,0,0,.06-.05.23-.12.45-.19.67l0,0h0a6,6,0,0,1-.37.82l-.09.17-.06.12h0a5.39,5.39,0,0,1-.33.5l-.07.1a1.27,1.27,0,0,1-.13.19h0a7.08,7.08,0,0,1-.52.59,4,4,0,0,1-.37.34l-.27.22a7.85,7.85,0,0,1-.66.47l-.1.06a6.38,6.38,0,0,1-.74.37l-.14.06a6,6,0,0,1-.82.27l-.17,0a6.47,6.47,0,0,1-.88.15h0c-.22,0-.44,0-.67,0A6.83,6.83,0,0,1,214.74,100.5Z"/><path class="cls-8" d="M26.22,222.81v-6.64c-.44.13-.88.24-1.34.33v6.31a2.39,2.39,0,1,0,1.34,0Z"/><path class="cls-8" d="M35.36,217.33A2.38,2.38,0,0,0,33.07,219H31.49v-6h-.11a10.65,10.65,0,0,1-1.23,1.09v6.26h2.92a2.38,2.38,0,1,0,2.29-3Z"/><path class="cls-8" d="M10.34,204.46a12.24,12.24,0,0,1,12.25-12.24V181.87A22.28,22.28,0,0,0,20,182l-1.31,7.81-2.8,1-6.1-5A22.64,22.64,0,0,0,5,190.35l.11.05,4.7,6.4-1.2,2.74-8.18.77s-.09.43-.19,1.19c0,.21,0,.44-.07.69a2.45,2.45,0,0,1,0,.27c-.06.66-.1,1.33-.1,2s0,1.32.09,2h0a20.87,20.87,0,0,0,.37,2.16H.54l3.32.32,4.51.44,1.24,2.73-4.49,6.27-.06.09,0,.05H5l0,.07H5a22.84,22.84,0,0,0,5,4.61l6.06-5,2.81,1,1.3,7.61,0,.1a21.76,21.76,0,0,0,2.44.14V216.7A12.24,12.24,0,0,1,10.34,204.46Z"/><path class="cls-8" d="M24.88,186.29v6.11a11.88,11.88,0,0,1,1.34.32v-6.43a2.38,2.38,0,1,0-1.34,0Z"/><path class="cls-8" d="M43,202.11a2.38,2.38,0,0,0-2.29,1.71H34.88c0,.21,0,.42,0,.63s0,.47,0,.71h5.87a2.38,2.38,0,1,0,2.29-3Z"/><path class="cls-8" d="M31.28,195.74v-6h1.58a2.39,2.39,0,1,0,0-1.34H29.94v6.22a10.93,10.93,0,0,1,1.32,1.13Z"/><path class="cls-8" d="M39.07,196.92v1.57H33.35a12.67,12.67,0,0,1,.64,1.34h6.42v-2.91a2.39,2.39,0,1,0-1.34,0Z"/><path class="cls-8" d="M40.35,212.15v-2.91H33.92a12.88,12.88,0,0,1-.67,1.34H39v1.57a2.39,2.39,0,1,0,1.35,0Z"/><circle class="cls-8" cx="24.06" cy="199.59" r="1.25"/><path class="cls-8" d="M24.06,210.63a1.25,1.25,0,1,0-1.25-1.24A1.24,1.24,0,0,0,24.06,210.63Z"/><path class="cls-8" d="M28.43,205.73a1.25,1.25,0,1,0-1.27-1.22A1.24,1.24,0,0,0,28.43,205.73Z"/><path class="cls-8" d="M34.17,204.49h0a11.59,11.59,0,0,0-11-11.57h-.59a11.58,11.58,0,0,0,0,23.16h0A11.58,11.58,0,0,0,34.17,204.49Zm-7.64-.21a1.89,1.89,0,0,1,3.77.21h0c0,.08,0,.15,0,.23a.06.06,0,0,0,0,0,1.16,1.16,0,0,1,0,.18v0a.6.6,0,0,1-.06.19v0a1.51,1.51,0,0,1-.11.22l-.09.13-.06.1-.12.14-.06.06-.08.08-.1.07-.18.12-.08,0-.12.06-.08,0-.26.08h0l-.16,0h-.21a1.89,1.89,0,0,1-1.84-1.45H21.4v-.65h5.13Zm-9.32-4.92h5s0-.08,0-.12v0a1.38,1.38,0,0,1,.08-.27v0a1.83,1.83,0,0,1,.29-.51h0s0,0,.05-.05l.14-.15.09-.08L23,198l.11-.06.15-.08.1,0,.26-.08h0l.1,0a1.86,1.86,0,0,1,.34,0,1.9,1.9,0,0,1,1.9,1.9h0a2.4,2.4,0,0,1,0,.28c0,.07,0,.14,0,.2a2.25,2.25,0,0,1-.08.24v0a2.08,2.08,0,0,1-.41.6l0,0-.22.19,0,0,0,0a1.12,1.12,0,0,1-.24.13l0,0-.05,0-.17.05a1.82,1.82,0,0,1-.52.08h0a1.43,1.43,0,0,1-.29,0h-.07l-.16-.05-.11,0h0a.88.88,0,0,1-.2-.09h0l0,0h0a1.59,1.59,0,0,1-.37-.27h0l0,0-.1-.11h0a2.66,2.66,0,0,1-.29-.45v0a2.25,2.25,0,0,1-.08-.24l0,0a.13.13,0,0,0,0-.06h-5Zm5,10.46h-5v-.65h5a.57.57,0,0,1,0-.13v0a1.38,1.38,0,0,1,.08-.27v0a1.83,1.83,0,0,1,.29-.51h0a1.84,1.84,0,0,1,1.47-.71,1.9,1.9,0,0,1,1.9,1.89h0a1.49,1.49,0,0,1,0,.21h0v0l0,.19v0a1.21,1.21,0,0,1,0,.18h0a2.26,2.26,0,0,1-.11.22l0,.07h0l-.09.14,0,0a.1.1,0,0,1,0,.05h0a2.09,2.09,0,0,1-.14.17l-.1.09-.08.06a1.55,1.55,0,0,1-.41.25l0,0a1.89,1.89,0,0,1-.52.13h-.2l-.18,0a.47.47,0,0,1-.17,0l-.21-.05-.15-.05-.18-.09L23,211a1.3,1.3,0,0,1-.23-.18l-.15-.15A1.85,1.85,0,0,1,22.22,209.82Z"/></g></g></svg>