<svg id="Layer_1" data-name="Layer 1" xmlns="http://www.w3.org/2000/svg" viewBox="0 0 431.89 101.29"><defs><style>.cls-1,.cls-3{font-size:36px;fill:#d11328;}.cls-1,.cls-3,.cls-5,.cls-7,.cls-8{font-family:Lato-Regular, Lato;}.cls-2{letter-spacing:-0.02em;}.cls-3{letter-spacing:-0.08em;}.cls-4{letter-spacing:0em;}.cls-5,.cls-7,.cls-8{font-size:60px;}.cls-10,.cls-5{fill:#d11227;}.cls-5{letter-spacing:-0.1em;}.cls-6{letter-spacing:0em;}.cls-7{fill:#1d1d1b;}.cls-11,.cls-8{fill:#15151d;}.cls-9{fill:none;}</style></defs><text class="cls-1" transform="translate(40.9 93.35)">Upg<tspan class="cls-2" x="64.55" y="0">r</tspan><tspan x="78.37" y="0">ade</tspan></text><text class="cls-3" transform="translate(180.69 93.35)">Y<tspan class="cls-4" x="19.76" y="0">our</tspan></text><text class="cls-1" transform="translate(259.88 94.71)">Gadgets</text><text class="cls-5" transform="translate(158.02 51.77)">T<tspan class="cls-6" x="29.1" y="0">ech</tspan></text><text class="cls-7" transform="translate(288.73 52.19)">Store</text><text class="cls-8" transform="translate(47.98 51.5)">saro</text><path class="cls-9" d="M47,231.64a2.68,2.68,0,0,0-.07.27v0c0,.05,0,.09,0,.13H42v.66h5a1.76,1.76,0,0,0,.41.79.71.71,0,0,0,.15.15,1.24,1.24,0,0,0,.22.18l.16.1.18.09.16,0,.2.06.17,0H49a1.73,1.73,0,0,0,.52-.13l0,0a1.51,1.51,0,0,0,.42-.25l.07-.06.11-.09a2.09,2.09,0,0,0,.14-.17h0l0-.05,0,0,.09-.14h0a.21.21,0,0,0,0-.06,2.29,2.29,0,0,0,.1-.23h0c0-.07,0-.13,0-.19v0a1.06,1.06,0,0,0,0-.19h0a1.62,1.62,0,0,0,0-.22h0a1.89,1.89,0,0,0-3.37-1.18h0a1.83,1.83,0,0,0-.29.51Zm1.78-.59a1.25,1.25,0,1,1-1.25,1.25A1.25,1.25,0,0,1,48.82,231.05Z" transform="translate(-24.76 -196.26)"/><path class="cls-9" d="M47,221.85a2,2,0,0,0-.07.26v0s0,.07,0,.11H42v.66h5a.13.13,0,0,0,0,.06v0a2.34,2.34,0,0,0,.09.24v0a1.65,1.65,0,0,0,.29.45h0l.1.11,0,0h0a1.59,1.59,0,0,0,.37.27h0l.19.09h0l.12,0,.15,0h.08a1.36,1.36,0,0,0,.29,0h0a1.82,1.82,0,0,0,.52-.08l.17-.05.09,0a1.41,1.41,0,0,0,.24-.13l.07,0,.22-.19a1.79,1.79,0,0,0,.44-.64,2.17,2.17,0,0,0,.07-.24,1.29,1.29,0,0,0,0-.19,1.43,1.43,0,0,0,0-.29h0a1.89,1.89,0,0,0-1.89-1.89,2,2,0,0,0-.35,0l-.09,0h0l-.25.08-.11,0-.15.08-.1.06-.13.1-.1.08-.13.15-.06.06h0a2,2,0,0,0-.29.51Zm1.78-.6a1.25,1.25,0,1,1-1.25,1.25A1.25,1.25,0,0,1,48.82,221.25Z" transform="translate(-24.76 -196.26)"/><path class="cls-9" d="M46.16,227.84h5.16a1.9,1.9,0,0,0,1.84,1.45h.21l.16,0,.06,0,.26-.08.07,0,.13-.06.08,0,.18-.11.09-.08.08-.08.07-.06a1.34,1.34,0,0,0,.11-.14.36.36,0,0,0,.07-.1.57.57,0,0,0,.08-.13,1.51,1.51,0,0,0,.11-.22v0l.06-.19v0a1.13,1.13,0,0,0,0-.18.06.06,0,0,0,0,0,1.79,1.79,0,0,0,0-.23h0a1.9,1.9,0,0,0-3.78-.21H46.16Zm7-1.69a1.25,1.25,0,1,1-1.23,1.27A1.25,1.25,0,0,1,53.14,226.15Z" transform="translate(-24.76 -196.26)"/><path class="cls-10" d="M51,245.72v-6.64a12.47,12.47,0,0,1-1.34.33v6.31a2.38,2.38,0,1,0,1.34,0Z" transform="translate(-24.76 -196.26)"/><path class="cls-10" d="M60.11,240.24A2.39,2.39,0,0,0,57.82,242H56.25v-6h-.11A12.62,12.62,0,0,1,54.91,237v6.26h2.91a2.39,2.39,0,1,0,2.29-3Z" transform="translate(-24.76 -196.26)"/><path class="cls-11" d="M35.1,227.37a12.24,12.24,0,0,1,12.24-12.24V204.78a24.86,24.86,0,0,0-2.6.15l-1.3,7.81-2.81,1-6.1-5a22.83,22.83,0,0,0-4.82,4.49l.11.05,4.7,6.41-1.21,2.74-8.17.76s-.1.44-.19,1.2c0,.23-.05.46-.07.68a2.45,2.45,0,0,0,0,.27,21.37,21.37,0,0,0,0,4,20,20,0,0,0,.36,2.16h.05l3.32.32,4.52.44L34.36,235l-4.48,6.28-.07.08,0,.05h0l-.05.07h0a22.87,22.87,0,0,0,5,4.61l6.05-5,2.81,1,1.31,7.61v.1a22,22,0,0,0,2.44.14V239.62A12.25,12.25,0,0,1,35.1,227.37Z" transform="translate(-24.76 -196.26)"/><path class="cls-10" d="M24.86,225.37c-.06.66-.1,1.33-.1,2s0,1.32.08,2h0A21.37,21.37,0,0,1,24.86,225.37Z" transform="translate(-24.76 -196.26)"/><path class="cls-10" d="M49.64,209.2v6.11a10.48,10.48,0,0,1,1.34.33V209.2a2.39,2.39,0,1,0-1.34,0Z" transform="translate(-24.76 -196.26)"/><path class="cls-10" d="M67.78,225a2.38,2.38,0,0,0-2.28,1.71H59.63c0,.21,0,.42,0,.63s0,.48,0,.71H65.5a2.38,2.38,0,1,0,2.28-3Z" transform="translate(-24.76 -196.26)"/><path class="cls-10" d="M56,218.65v-6h1.57a2.38,2.38,0,1,0,0-1.34H54.7v6.22A11.66,11.66,0,0,1,56,218.65Z" transform="translate(-24.76 -196.26)"/><path class="cls-10" d="M63.82,219.83v1.57H58.1a12.9,12.9,0,0,1,.65,1.35h6.41v-2.92a2.38,2.38,0,1,0-1.34,0Z" transform="translate(-24.76 -196.26)"/><path class="cls-10" d="M65.1,235.06v-2.91H58.68a13,13,0,0,1-.68,1.34h5.76v1.57a2.39,2.39,0,1,0,1.34,0Z" transform="translate(-24.76 -196.26)"/><path class="cls-11" d="M48.82,223.75a1.25,1.25,0,1,0-1.25-1.25A1.25,1.25,0,0,0,48.82,223.75Z" transform="translate(-24.76 -196.26)"/><path class="cls-11" d="M48.82,233.54a1.25,1.25,0,1,0-1.25-1.24A1.24,1.24,0,0,0,48.82,233.54Z" transform="translate(-24.76 -196.26)"/><path class="cls-11" d="M53.18,228.65a1.25,1.25,0,1,0-1.27-1.23A1.26,1.26,0,0,0,53.18,228.65Z" transform="translate(-24.76 -196.26)"/><path class="cls-10" d="M48.77,224.39h0a1.83,1.83,0,0,0,.52-.09,1.82,1.82,0,0,1-.52.08Z" transform="translate(-24.76 -196.26)"/><polygon class="cls-10" points="25.96 26.24 25.96 26.24 25.96 26.24 25.96 26.24"/><path class="cls-10" d="M55,227.63a1.79,1.79,0,0,0,0-.23h0A1.79,1.79,0,0,1,55,227.63Z" transform="translate(-24.76 -196.26)"/><path class="cls-10" d="M47.39,233.53a1.76,1.76,0,0,1-.41-.79H42v-.66h5s0-.08,0-.13v0a2.68,2.68,0,0,1,.07-.27v0a1.83,1.83,0,0,1,.29-.51v-3.27H46.16v-.65h1.18v-3.5l0,.05a1.65,1.65,0,0,1-.29-.45v0A2.34,2.34,0,0,1,47,223v0a.13.13,0,0,1,0-.06H42v-.66h5s0-.08,0-.11v0a2,2,0,0,1,.07-.26v0a2,2,0,0,1,.29-.51v-5.49a11.58,11.58,0,0,0,0,23.16v-5.49Z" transform="translate(-24.76 -196.26)"/><path class="cls-10" d="M48.63,234.18l.19,0,.18,0h-.37Z" transform="translate(-24.76 -196.26)"/><path class="cls-10" d="M51.32,227.84h0a1.9,1.9,0,0,0,1.84,1.46l.15,0h-.15A1.9,1.9,0,0,1,51.32,227.84Z" transform="translate(-24.76 -196.26)"/><path class="cls-10" d="M50.7,232.53h0a1.06,1.06,0,0,1,0,.19A1.06,1.06,0,0,0,50.7,232.53Z" transform="translate(-24.76 -196.26)"/><path class="cls-10" d="M50.7,232.52h0a1.48,1.48,0,0,0,0-.21h0A1.62,1.62,0,0,1,50.7,232.52Z" transform="translate(-24.76 -196.26)"/><path class="cls-10" d="M50.37,233.38h0l0,0Z" transform="translate(-24.76 -196.26)"/><polygon class="cls-10" points="25.84 36.67 25.85 36.67 25.84 36.67 25.84 36.67"/><path class="cls-10" d="M50.46,233.24h0l0-.07h0a.21.21,0,0,1,0,.06Z" transform="translate(-24.76 -196.26)"/><polygon class="cls-10" points="23.15 27.89 23.15 27.89 23.14 27.89 23.15 27.89"/><path class="cls-11" d="M58.92,227.4h0a11.58,11.58,0,0,0-11-11.57h-.6v5.49h0l.06-.06.13-.15.1-.08.13-.1.1-.06.15-.08.11,0,.25-.08h0l.09,0a2,2,0,0,1,.35,0,1.89,1.89,0,0,1,1.89,1.89h0a1.43,1.43,0,0,1,0,.29,1.29,1.29,0,0,1,0,.19,2.17,2.17,0,0,1-.07.24,1.79,1.79,0,0,1-.44.64l-.22.19-.07,0a1.41,1.41,0,0,1-.24.13l-.09,0-.17.05a1.83,1.83,0,0,1-.52.09h0a1.36,1.36,0,0,1-.29,0H48.4l-.15,0-.12,0h0l-.19-.09h0a1.59,1.59,0,0,1-.37-.27h0l0,0-.1-.11h0l0-.05v3.5h3.94a1.9,1.9,0,0,1,3.78.21h0a1.79,1.79,0,0,1,0,.23.06.06,0,0,1,0,0,1.13,1.13,0,0,1,0,.18v0l-.06.19v0a1.51,1.51,0,0,1-.11.22.57.57,0,0,1-.08.13.36.36,0,0,1-.07.1,1.34,1.34,0,0,1-.11.14l-.07.06-.08.08-.09.08-.18.11-.08,0-.13.06-.07,0-.26.08-.06,0-.16,0h-.06l-.15,0a1.9,1.9,0,0,1-1.84-1.46h-4v3.27h0a1.89,1.89,0,0,1,3.37,1.18h0a1.48,1.48,0,0,1,0,.21h0a1.06,1.06,0,0,1,0,.19v0c0,.06,0,.12,0,.19h0a2.29,2.29,0,0,1-.1.23h0l0,.07h0l-.09.14h0l0,0,0,.05h0a2.09,2.09,0,0,1-.14.17l-.11.09-.07.06a1.51,1.51,0,0,1-.42.25l0,0a1.73,1.73,0,0,1-.52.13h0l-.18,0-.19,0-.17,0-.2-.06-.16,0-.18-.09-.16-.1a1.24,1.24,0,0,1-.22-.18.71.71,0,0,1-.15-.15l0,0V239h0A11.57,11.57,0,0,0,58.92,227.4Z" transform="translate(-24.76 -196.26)"/></svg>