<svg id="Layer_1" data-name="Layer 1" xmlns="http://www.w3.org/2000/svg" viewBox="0 0 431.89 63.14"><defs><style>.cls-1,.cls-3,.cls-4{font-size:60px;font-family:Lato-Regular, Lato;}.cls-1,.cls-6{fill:#d11227;}.cls-1{letter-spacing:-0.1em;}.cls-2{letter-spacing:0em;}.cls-3{fill:#1d1d1b;}.cls-4,.cls-7{fill:#15151d;}.cls-5,.cls-8{fill:none;}.cls-8{stroke:#d11227;stroke-linecap:round;stroke-linejoin:round;stroke-width:0;}</style></defs><text class="cls-1" transform="translate(158.02 51.77)">T<tspan class="cls-2" x="29.1" y="0">ech</tspan></text><text class="cls-3" transform="translate(288.73 52.19)">Store</text><text class="cls-4" transform="translate(47.98 51.49)">saro</text><path class="cls-5" d="M60.82,245.77a1.12,1.12,0,0,0-.08.26v.05s0,.08,0,.12h-5v.65h5a.13.13,0,0,1,0,.06l0,0a1.35,1.35,0,0,0,.08.24v0a2,2,0,0,0,.29.45h0l.1.11,0,0h0a2.16,2.16,0,0,0,.38.27h0l.2.09h0l.11,0,.16,0h.07l.29,0h.05a1.82,1.82,0,0,0,.52-.08.85.85,0,0,0,.17-.06h0l0,0a1.83,1.83,0,0,0,.24-.13l0,0,0,0,.22-.18,0,0a1.56,1.56,0,0,0,.23-.28,2,2,0,0,0,.18-.32v0a1.69,1.69,0,0,0,.08-.24c0-.06,0-.13,0-.19a2.66,2.66,0,0,0,0-.28h0a1.9,1.9,0,0,0-1.9-1.89,1.87,1.87,0,0,0-.34,0l-.1,0h0a1.34,1.34,0,0,0-.26.09l-.1,0-.15.08-.11.07-.13.1-.09.08a.93.93,0,0,0-.14.14l-.05.06h0a1.92,1.92,0,0,0-.29.5Zm1.77-.6a1.25,1.25,0,1,1-1.25,1.25A1.25,1.25,0,0,1,62.59,245.17Z" transform="translate(-38.53 -220.18)"/><path class="cls-5" d="M60.82,255.57a1.12,1.12,0,0,0-.08.26v0a.49.49,0,0,0,0,.12h-5v.66h5a2,2,0,0,0,.41.8l.15.15.23.18.16.1.18.08L62,258l.21.05.17,0h.38a1.59,1.59,0,0,0,.52-.13h0a1.87,1.87,0,0,0,.41-.25l.08-.07.1-.09.14-.16.06-.08h0l.09-.14h0a.43.43,0,0,1,0-.07h0a2.4,2.4,0,0,0,.11-.23h0s0-.05,0-.07l0-.12h0l0-.2h0a1.5,1.5,0,0,0,0-.22h0a1.9,1.9,0,0,0-1.9-1.89,1.87,1.87,0,0,0-1.47.71h0a1.92,1.92,0,0,0-.29.5Zm1.77-.6a1.25,1.25,0,1,1-1.25,1.25A1.25,1.25,0,0,1,62.59,255Z" transform="translate(-38.53 -220.18)"/><path class="cls-5" d="M59.93,251.77H65.1a1.89,1.89,0,0,0,1.84,1.45h.21l.16,0h0a2,2,0,0,0,.26-.09l.08,0,.12-.07.08,0,.18-.12.1-.08.08-.07.06-.07.12-.14.06-.09.09-.13a2.4,2.4,0,0,0,.11-.23h0a.7.7,0,0,0,.06-.19v0a.85.85,0,0,0,0-.17.09.09,0,0,1,0,0c0-.07,0-.15,0-.23h0a1.89,1.89,0,0,0-3.77-.21H59.93Zm7-1.7a1.25,1.25,0,1,1-1.22,1.27A1.25,1.25,0,0,1,66.91,250.07Z" transform="translate(-38.53 -220.18)"/><path class="cls-6" d="M64.75,269.64V263a11.88,11.88,0,0,1-1.34.32v6.31a2.29,2.29,0,0,1,1.34,0Z" transform="translate(-38.53 -220.18)"/><path class="cls-6" d="M64.75,269.64a2.29,2.29,0,0,0-1.34,0,2.39,2.39,0,1,0,1.34,0Z" transform="translate(-38.53 -220.18)"/><path class="cls-6" d="M73.89,264.16a2.38,2.38,0,0,0-2.29,1.71h.08v1.34H71.6a2.38,2.38,0,1,0,2.29-3Z" transform="translate(-38.53 -220.18)"/><polygon class="cls-6" points="33.15 45.69 33.07 45.69 31.5 45.69 30.15 45.69 30.15 47.03 31.5 47.03 33.07 47.03 33.15 47.03 33.15 45.69"/><path class="cls-7" d="M48.87,251.29a12.24,12.24,0,0,1,12.25-12.24V228.71a22.28,22.28,0,0,0-2.6.15l-1.31,7.81-2.8,1.05-6.1-5a22.89,22.89,0,0,0-4.83,4.49l.11,0,4.7,6.41-1.2,2.74.39,1a29.08,29.08,0,0,1,1.18,15.46l-5.11,2.51v0l0,.07h0a22.36,22.36,0,0,0,5,4.61l6.06-5,2.81,1,1.3,7.61,0,.11c.8.08,1.61.13,2.44.13V263.54A12.24,12.24,0,0,1,48.87,251.29Z" transform="translate(-38.53 -220.18)"/><path class="cls-6" d="M38.63,249.3c-.06.66-.1,1.32-.1,2s0,1.33.09,2h0A22.26,22.26,0,0,1,38.63,249.3Z" transform="translate(-38.53 -220.18)"/><path class="cls-6" d="M38.65,249c0-.22.05-.45.07-.68C38.7,248.54,38.68,248.78,38.65,249Z" transform="translate(-38.53 -220.18)"/><path class="cls-6" d="M63.41,233.12v6.11a11.91,11.91,0,0,1,1.34.33v-6.44a2.29,2.29,0,0,1-1.34,0Z" transform="translate(-38.53 -220.18)"/><path class="cls-6" d="M63.41,233.12a2.29,2.29,0,0,0,1.34,0,2.38,2.38,0,1,0-1.34,0Z" transform="translate(-38.53 -220.18)"/><path class="cls-6" d="M79.27,250.65H73.41c0,.21,0,.42,0,.63s0,.48,0,.71h5.87a2.41,2.41,0,0,1-.1-.67A2.53,2.53,0,0,1,79.27,250.65Z" transform="translate(-38.53 -220.18)"/><path class="cls-6" d="M81.56,248.94a2.39,2.39,0,0,0-2.29,1.71,2.53,2.53,0,0,0-.1.67,2.41,2.41,0,0,0,2.39,2.39,2.39,2.39,0,0,0,0-4.77Z" transform="translate(-38.53 -220.18)"/><path class="cls-6" d="M69.81,242.57v-6H68.47v4.88a11.91,11.91,0,0,1,1.32,1.13Z" transform="translate(-38.53 -220.18)"/><path class="cls-6" d="M71.46,236.56h-.07a2.38,2.38,0,1,0,0-1.34h.07Z" transform="translate(-38.53 -220.18)"/><polygon class="cls-6" points="32.86 16.38 32.93 16.38 32.93 15.04 32.86 15.04 31.28 15.04 29.94 15.04 29.94 16.38 31.28 16.38 32.86 16.38"/><path class="cls-6" d="M71.88,245.33a12.67,12.67,0,0,1,.64,1.34H77.6v-1.34Z" transform="translate(-38.53 -220.18)"/><path class="cls-6" d="M77.6,243.75v-.07h1.34v.07a2.39,2.39,0,1,0-1.34,0Z" transform="translate(-38.53 -220.18)"/><polygon class="cls-6" points="39.07 23.49 39.07 23.57 39.07 25.14 39.07 26.48 40.41 26.48 40.41 25.14 40.41 23.57 40.41 23.49 39.07 23.49"/><path class="cls-6" d="M72.45,256.07a12,12,0,0,1-.67,1.34h5.75v-1.34Z" transform="translate(-38.53 -220.18)"/><path class="cls-6" d="M78.88,259v.07H77.53V259a2.39,2.39,0,1,0,1.35,0Z" transform="translate(-38.53 -220.18)"/><polygon class="cls-6" points="40.34 38.88 40.34 38.8 40.34 37.23 40.34 35.89 39 35.89 39 37.23 39 38.8 39 38.88 40.34 38.88"/><path class="cls-6" d="M70,259.87h-.12A11.67,11.67,0,0,1,68.68,261v4.91H70Z" transform="translate(-38.53 -220.18)"/><path class="cls-7" d="M47.48,247.35l-.39-1-8.18.76s-.09.44-.19,1.2c0,.23,0,.46-.07.68a2.64,2.64,0,0,1,0,.28,22.26,22.26,0,0,0,0,3.95,21,21,0,0,0,.37,2.17h0l3.32.33,4.51.43,1.24,2.73-4.49,6.28-.06.09,0,0,5.11-2.51A29.08,29.08,0,0,0,47.48,247.35Z" transform="translate(-38.53 -220.18)"/><path class="cls-7" d="M62.59,247.67a1.25,1.25,0,1,0-1.25-1.25A1.25,1.25,0,0,0,62.59,247.67Z" transform="translate(-38.53 -220.18)"/><path class="cls-7" d="M62.59,257.47a1.25,1.25,0,1,0-1.25-1.25A1.25,1.25,0,0,0,62.59,257.47Z" transform="translate(-38.53 -220.18)"/><path class="cls-7" d="M67,252.57a1.25,1.25,0,1,0-1.27-1.23A1.24,1.24,0,0,0,67,252.57Z" transform="translate(-38.53 -220.18)"/><path class="cls-6" d="M63.61,248l.07-.05,0,0Z" transform="translate(-38.53 -220.18)"/><path class="cls-6" d="M64.16,247.48a1.56,1.56,0,0,1-.23.28l0,0a1.83,1.83,0,0,0,.44-.65v0A2,2,0,0,1,64.16,247.48Z" transform="translate(-38.53 -220.18)"/><path class="cls-6" d="M62.54,248.31h.05a1.82,1.82,0,0,0,.52-.08,1.82,1.82,0,0,1-.52.08Z" transform="translate(-38.53 -220.18)"/><path class="cls-6" d="M63.28,248.18l.09,0,0,0Z" transform="translate(-38.53 -220.18)"/><polygon class="cls-6" points="25.96 26.24 25.96 26.24 25.96 26.24 25.96 26.24"/><path class="cls-6" d="M64.46,246.71c0,.06,0,.13,0,.19S64.45,246.77,64.46,246.71Z" transform="translate(-38.53 -220.18)"/><path class="cls-8" d="M64.16,247.48a2,2,0,0,0,.18-.32" transform="translate(-38.53 -220.18)"/><path class="cls-8" d="M64.49,246.42h0" transform="translate(-38.53 -220.18)"/><path class="cls-6" d="M64.47,256.44a1.5,1.5,0,0,0,0-.22h0A1.5,1.5,0,0,1,64.47,256.44Z" transform="translate(-38.53 -220.18)"/><path class="cls-6" d="M68.82,251.55c0-.07,0-.15,0-.23h0C68.83,251.4,68.82,251.48,68.82,251.55Z" transform="translate(-38.53 -220.18)"/><path class="cls-6" d="M61.88,258l-.18-.08Z" transform="translate(-38.53 -220.18)"/><path class="cls-6" d="M61.16,257.46a2,2,0,0,1-.41-.8h-5V256h5a.49.49,0,0,1,0-.12v0a1.12,1.12,0,0,1,.08-.26v0a1.92,1.92,0,0,1,.29-.5v-3.27H59.93v-.66h1.19v-3.5l0,0a2,2,0,0,1-.29-.45v0a1.35,1.35,0,0,1-.08-.24l0,0a.13.13,0,0,0,0-.06h-5v-.65h5s0-.08,0-.12V246a1.12,1.12,0,0,1,.08-.26v0a1.92,1.92,0,0,1,.29-.5v-5.5a11.58,11.58,0,0,0,0,23.16v-5.49Z" transform="translate(-38.53 -220.18)"/><path class="cls-6" d="M62.24,258.08,62,258Z" transform="translate(-38.53 -220.18)"/><path class="cls-6" d="M61.54,257.79l-.23-.18Z" transform="translate(-38.53 -220.18)"/><path class="cls-6" d="M62.41,258.1l.18,0h-.18Z" transform="translate(-38.53 -220.18)"/><path class="cls-6" d="M65.1,251.77h0a1.88,1.88,0,0,0,1.84,1.45h0A1.89,1.89,0,0,1,65.1,251.77Z" transform="translate(-38.53 -220.18)"/><path class="cls-8" d="M61.16,247.66a2,2,0,0,1-.29-.45" transform="translate(-38.53 -220.18)"/><path class="cls-8" d="M60.83,245.74a1.92,1.92,0,0,1,.29-.5" transform="translate(-38.53 -220.18)"/><path class="cls-8" d="M60.83,255.54a1.92,1.92,0,0,1,.29-.5" transform="translate(-38.53 -220.18)"/><path class="cls-6" d="M64.43,256.66h0l0,.12Z" transform="translate(-38.53 -220.18)"/><path class="cls-6" d="M64.47,256.44h0a1.5,1.5,0,0,0,0-.22A1.5,1.5,0,0,1,64.47,256.44Z" transform="translate(-38.53 -220.18)"/><polygon class="cls-6" points="25.74 36.9 25.74 36.9 25.74 36.91 25.74 36.9"/><polygon class="cls-6" points="25.84 36.67 25.85 36.67 25.84 36.67 25.84 36.67"/><polygon class="cls-6" points="23.17 27.91 23.17 27.91 23.18 27.91 23.17 27.91"/><polygon class="cls-6" points="23.15 27.89 23.15 27.89 23.14 27.89 23.15 27.89"/><path class="cls-7" d="M72.7,251.32h0a11.58,11.58,0,0,0-11-11.56l-.59,0v5.5l.05-.06a.93.93,0,0,1,.14-.14l.09-.08.13-.1.11-.07.15-.08.1,0,.06,0h0l.19-.06h0l.09,0a1.87,1.87,0,0,1,.34,0,1.9,1.9,0,0,1,1.9,1.89h0a2.66,2.66,0,0,1,0,.28c0,.06,0,.13,0,.19a1.69,1.69,0,0,1-.08.24,1.83,1.83,0,0,1-.44.65l-.22.18-.07.05a1.83,1.83,0,0,1-.24.13l-.09,0a.85.85,0,0,1-.17.06,1.82,1.82,0,0,1-.52.08h-.05l-.29,0h-.07l-.1,0H62l-.11,0h0a.88.88,0,0,1-.2-.09h0L61.5,248l0,0-.09-.07-.06-.05h0l0,0,0,0-.07-.08h0l0,0v3.5h3.94a1.89,1.89,0,0,1,3.77.21h0c0,.08,0,.16,0,.23a.09.09,0,0,0,0,0,.85.85,0,0,1,0,.17v0a.7.7,0,0,1-.06.19h0a2.4,2.4,0,0,1-.11.23l-.09.13-.06.09-.12.14-.06.07-.08.07-.1.08-.18.12-.08,0-.12.07-.08,0a2,2,0,0,1-.26.09h0l-.16,0h-.21a1.88,1.88,0,0,1-1.84-1.45h-4V255a1.84,1.84,0,0,1,1.47-.71,1.89,1.89,0,0,1,1.9,1.89h0a1.5,1.5,0,0,1,0,.22h0l0,.2h0l0,.12s0,.05,0,.07h0a2.4,2.4,0,0,1-.11.23h0a.43.43,0,0,0,0,.07h0l-.09.14h0l-.06.08-.14.16-.1.09-.08.07a1.87,1.87,0,0,1-.41.25h0a1.59,1.59,0,0,1-.52.13h-.2l-.18,0-.17,0L62,258l-.15-.06-.18-.08-.16-.1-.23-.18-.15-.15,0,0v5.49h0A11.59,11.59,0,0,0,72.7,251.32Z" transform="translate(-38.53 -220.18)"/><path class="cls-7" d="M61.7,248.09a.88.88,0,0,0,.2.09h0l-.2-.09Z" transform="translate(-38.53 -220.18)"/><path class="cls-7" d="M62.05,248.24h0l.1,0-.16,0Z" transform="translate(-38.53 -220.18)"/><path class="cls-7" d="M61.17,245.18l-.05.06h0Z" transform="translate(-38.53 -220.18)"/><path class="cls-7" d="M62,244.64h0l-.06,0a1.34,1.34,0,0,1,.26-.09Z" transform="translate(-38.53 -220.18)"/><path class="cls-7" d="M64.49,246.42h0a1.9,1.9,0,0,0-1.9-1.89,1.87,1.87,0,0,0-.34,0,1.87,1.87,0,0,1,.34,0A1.9,1.9,0,0,1,64.49,246.42Z" transform="translate(-38.53 -220.18)"/><path class="cls-7" d="M62.16,244.58h0l.1,0Z" transform="translate(-38.53 -220.18)"/><path class="cls-7" d="M61.3,247.81l.06.05.09.07,0,0,.18.11h0A2.16,2.16,0,0,1,61.3,247.81Z" transform="translate(-38.53 -220.18)"/><path class="cls-7" d="M61.23,247.74l0,0-.1-.11Z" transform="translate(-38.53 -220.18)"/><path class="cls-7" d="M62.59,254.33a1.9,1.9,0,0,1,1.9,1.89h0a1.89,1.89,0,0,0-1.9-1.89,1.84,1.84,0,0,0-1.47.71h0A1.87,1.87,0,0,1,62.59,254.33Z" transform="translate(-38.53 -220.18)"/><path class="cls-7" d="M66.94,249.43a1.89,1.89,0,0,1,1.89,1.89h0a1.89,1.89,0,0,0-3.77-.21h0A1.89,1.89,0,0,1,66.94,249.43Z" transform="translate(-38.53 -220.18)"/></svg>