<svg id="Layer_1" data-name="Layer 1" xmlns="http://www.w3.org/2000/svg" viewBox="0 0 477.62 138.66"><defs><style>.cls-1{fill:#f39fb0;}.cls-2,.cls-4{font-size:36px;fill:#d11328;}.cls-2,.cls-4,.cls-6,.cls-8,.cls-9{font-family:Lato-Regular, Lato;}.cls-3{letter-spacing:-0.02em;}.cls-4{letter-spacing:-0.08em;}.cls-5{letter-spacing:0em;}.cls-6,.cls-8,.cls-9{font-size:60px;}.cls-11,.cls-6{fill:#d11227;}.cls-6{letter-spacing:-0.1em;}.cls-7{letter-spacing:0em;}.cls-8{fill:#1d1d1b;}.cls-12,.cls-9{fill:#15151d;}.cls-10{fill:none;}</style></defs><path class="cls-1" d="M61.72,378.54c29.93-28.78,123.3-7.49,151.41,7.63C243,402.25,232.84,424,274.66,422.52,325,411.57,322.25,402.88,338,383.67c19.91-24.31,75.77-40.25,104.17-37.33,59.62,6.12,108.23,39.07,83.74,100.85-10.1,25.49-72.56,27.59-101.84,3.54-44.42-36.5-77.05,33.57-172.37,33.91-111.49.4-130.15-10-154.29-24.68C72.56,444.86,40.39,399.06,61.72,378.54Z" transform="translate(-54.75 -345.99)"/><text class="cls-2" transform="translate(50.29 117.21)">Upg<tspan class="cls-3" x="64.55" y="0">r</tspan><tspan x="78.37" y="0">ade</tspan></text><text class="cls-4" transform="translate(190.08 117.21)">Y<tspan class="cls-5" x="19.76" y="0">our</tspan></text><text class="cls-2" transform="translate(269.27 118.57)">Gadgets</text><text class="cls-6" transform="translate(167.41 75.63)">T<tspan class="cls-7" x="29.1" y="0">ech</tspan></text><text class="cls-8" transform="translate(298.12 76.05)">Store</text><text class="cls-9" transform="translate(57.37 75.36)">saro</text><path class="cls-10" d="M86.43,405.24a2,2,0,0,0-.08.26v.05a.49.49,0,0,1,0,.12h-5v.66h5a2,2,0,0,0,.41.8l.15.15.23.17a.91.91,0,0,0,.16.11l.18.08.16.05.2.06.17,0h.38a1.8,1.8,0,0,0,.52-.13h0a1.87,1.87,0,0,0,.41-.25.27.27,0,0,0,.08-.07l.1-.09.15-.16h0l0-.05,0,0,.09-.14v0l0-.06c0-.08.07-.15.1-.23h0l.06-.19h0a1.38,1.38,0,0,0,0-.2h0c0-.07,0-.14,0-.22h0a1.89,1.89,0,0,0-3.37-1.18h0a2.16,2.16,0,0,0-.29.51Zm1.77-.6A1.25,1.25,0,1,1,87,405.89,1.25,1.25,0,0,1,88.2,404.64Z" transform="translate(-54.75 -345.99)"/><path class="cls-10" d="M86.43,395.44a2,2,0,0,0-.08.26v.05a.37.37,0,0,1,0,.11h-5v.66h5l0,.06v0a1.17,1.17,0,0,0,.09.24v0a2,2,0,0,0,.3.45h0l.1.11,0,0h0a2.6,2.6,0,0,0,.38.27h0l.19.09h0l.11,0,.16,0h.08a1.36,1.36,0,0,0,.29,0h0a2.17,2.17,0,0,0,.52-.08l.18-.06.08,0a2,2,0,0,0,.25-.14l.06,0,.23-.18a2.26,2.26,0,0,0,.44-.65,1.68,1.68,0,0,0,.07-.24,1.29,1.29,0,0,0,0-.19,2.85,2.85,0,0,0,0-.29h0a1.89,1.89,0,0,0-1.9-1.89,2,2,0,0,0-.34,0l-.09,0h0l-.25.08-.11.05-.15.08-.11.07-.13.1-.09.07-.14.15,0,.06h0a1.92,1.92,0,0,0-.29.5Zm1.77-.6A1.25,1.25,0,1,1,87,396.09,1.25,1.25,0,0,1,88.2,394.84Z" transform="translate(-54.75 -345.99)"/><path class="cls-10" d="M85.54,401.44h5.17a1.89,1.89,0,0,0,1.84,1.44h.21l.16,0,0,0a1.38,1.38,0,0,0,.27-.08l.07,0,.13-.06.08,0,.17-.12.1-.08.08-.07.06-.07.12-.14.07-.09a.57.57,0,0,1,.08-.13,2.4,2.4,0,0,0,.11-.23h0c0-.07,0-.13.07-.19v-.05l0-.18v0a1.77,1.77,0,0,0,0-.23h0a1.89,1.89,0,0,0-3.77-.21H85.54Zm7-1.7A1.25,1.25,0,1,1,91.3,401,1.26,1.26,0,0,1,92.53,399.74Z" transform="translate(-54.75 -345.99)"/><path class="cls-11" d="M90.36,419.31v-6.64A11.4,11.4,0,0,1,89,413v6.31a2.39,2.39,0,1,0,1.34,0Z" transform="translate(-54.75 -345.99)"/><path class="cls-11" d="M99.5,413.83a2.38,2.38,0,0,0-2.29,1.71H95.64v-6h-.12a11.54,11.54,0,0,1-1.22,1.1v6.25h2.91a2.38,2.38,0,1,0,2.29-3.05Z" transform="translate(-54.75 -345.99)"/><path class="cls-12" d="M74.48,401a12.25,12.25,0,0,1,12.25-12.24V378.38a22.28,22.28,0,0,0-2.6.15l-1.31,7.81-2.8,1-6.1-5a22.89,22.89,0,0,0-4.83,4.49l.11,0,4.7,6.41-1.2,2.74-8.18.76s-.09.44-.18,1.2c0,.23,0,.46-.07.68s0,.19,0,.27a22,22,0,0,0,0,4,18.24,18.24,0,0,0,.36,2.17h.05l3.32.32,4.51.44,1.24,2.73-4.49,6.28-.06.09,0,0h0v0l0,.06h0a22.43,22.43,0,0,0,5,4.61l6-5,2.81,1,1.3,7.61,0,.11c.8.08,1.61.13,2.44.13V413.21A12.25,12.25,0,0,1,74.48,401Z" transform="translate(-54.75 -345.99)"/><path class="cls-11" d="M64.24,399c-.06.66-.1,1.33-.1,2s0,1.32.09,2h0A22,22,0,0,1,64.24,399Z" transform="translate(-54.75 -345.99)"/><path class="cls-11" d="M89,382.79v6.11a11.4,11.4,0,0,1,1.34.33v-6.44a2.38,2.38,0,1,0-1.34,0Z" transform="translate(-54.75 -345.99)"/><path class="cls-11" d="M107.17,398.61a2.39,2.39,0,0,0-2.29,1.71H99c0,.21,0,.42,0,.63s0,.48,0,.71h5.87a2.39,2.39,0,1,0,2.29-3.05Z" transform="translate(-54.75 -345.99)"/><path class="cls-11" d="M95.42,392.24v-6H97a2.38,2.38,0,1,0,0-1.34H94.08v6.22a10.93,10.93,0,0,1,1.32,1.13Z" transform="translate(-54.75 -345.99)"/><path class="cls-11" d="M103.21,393.42V395H97.49a12.67,12.67,0,0,1,.64,1.34h6.42v-2.92a2.38,2.38,0,1,0-1.34,0Z" transform="translate(-54.75 -345.99)"/><path class="cls-11" d="M104.49,408.66v-2.92H98.06a12.88,12.88,0,0,1-.67,1.34h5.76v1.58a2.38,2.38,0,1,0,1.34,0Z" transform="translate(-54.75 -345.99)"/><path class="cls-12" d="M88.2,397.34A1.25,1.25,0,1,0,87,396.09,1.25,1.25,0,0,0,88.2,397.34Z" transform="translate(-54.75 -345.99)"/><path class="cls-12" d="M88.2,407.14A1.25,1.25,0,1,0,87,405.89,1.25,1.25,0,0,0,88.2,407.14Z" transform="translate(-54.75 -345.99)"/><path class="cls-12" d="M92.57,402.24A1.25,1.25,0,1,0,91.3,401,1.25,1.25,0,0,0,92.57,402.24Z" transform="translate(-54.75 -345.99)"/><path class="cls-11" d="M88.16,398h0a2.17,2.17,0,0,0,.52-.08,2.17,2.17,0,0,1-.52.08Z" transform="translate(-54.75 -345.99)"/><polygon class="cls-11" points="35.35 50.1 35.35 50.1 35.35 50.1 35.35 50.1"/><path class="cls-11" d="M94.43,401.22a1.77,1.77,0,0,0,0-.23h0A1.77,1.77,0,0,1,94.43,401.22Z" transform="translate(-54.75 -345.99)"/><path class="cls-11" d="M86.77,407.13a2,2,0,0,1-.41-.8h-5v-.66h5a.49.49,0,0,0,0-.12v-.05a2,2,0,0,1,.08-.26v0a2.16,2.16,0,0,1,.29-.51v-3.26H85.54v-.66h1.19v-3.5s0,0,0,.05a2,2,0,0,1-.3-.45v0a1.17,1.17,0,0,1-.09-.24v0l0-.06h-5v-.66h5a.37.37,0,0,0,0-.11v-.05a2,2,0,0,1,.08-.26v0a1.92,1.92,0,0,1,.29-.5v-5.5a11.58,11.58,0,0,0,0,23.16v-5.49Z" transform="translate(-54.75 -345.99)"/><path class="cls-11" d="M88,407.77l.18,0,.19,0H88Z" transform="translate(-54.75 -345.99)"/><path class="cls-11" d="M90.71,401.44h0a1.89,1.89,0,0,0,1.84,1.45h0A1.89,1.89,0,0,1,90.71,401.44Z" transform="translate(-54.75 -345.99)"/><path class="cls-11" d="M90.08,406.12h0a1.38,1.38,0,0,1,0,.2A1.38,1.38,0,0,0,90.08,406.12Z" transform="translate(-54.75 -345.99)"/><path class="cls-11" d="M90.09,406.11h0c0-.07,0-.14,0-.22h0C90.1,406,90.09,406,90.09,406.11Z" transform="translate(-54.75 -345.99)"/><path class="cls-11" d="M89.75,407h0l0,0Z" transform="translate(-54.75 -345.99)"/><polygon class="cls-11" points="35.23 60.53 35.23 60.53 35.23 60.53 35.23 60.53"/><path class="cls-11" d="M89.84,406.84h0a.56.56,0,0,1,0-.08h0l0,.06Z" transform="translate(-54.75 -345.99)"/><polygon class="cls-11" points="32.54 51.76 32.54 51.76 32.53 51.75 32.54 51.76"/><path class="cls-12" d="M98.31,401h0a11.59,11.59,0,0,0-11-11.57h-.59v5.5h0l0-.06.14-.15.09-.07.13-.1.11-.07.15-.08.11-.05.25-.08h0l.09,0a2,2,0,0,1,.34,0,1.89,1.89,0,0,1,1.9,1.89h0a2.85,2.85,0,0,1,0,.29,1.29,1.29,0,0,1,0,.19,1.68,1.68,0,0,1-.07.24,2.26,2.26,0,0,1-.44.65l-.23.18-.06,0a2,2,0,0,1-.25.14l-.08,0-.18.06a2.17,2.17,0,0,1-.52.08h0a1.36,1.36,0,0,1-.29,0h-.08l-.16,0-.11,0h0l-.19-.09h0a2.6,2.6,0,0,1-.38-.27h0l0,0-.1-.11h0s0,0,0-.05v3.5h3.94a1.89,1.89,0,0,1,3.77.21h0a1.77,1.77,0,0,1,0,.23v0l0,.18v.05c0,.06,0,.12-.07.19h0a2.4,2.4,0,0,1-.11.23.57.57,0,0,0-.08.13l-.07.09-.12.14-.06.07-.08.07-.1.08-.17.12-.08,0-.13.06-.07,0a1.38,1.38,0,0,1-.27.08l0,0-.16,0h-.21a1.89,1.89,0,0,1-1.84-1.45h-4v3.26h0a1.89,1.89,0,0,1,3.37,1.18h0c0,.08,0,.15,0,.22h0a1.38,1.38,0,0,1,0,.2h0l-.06.19h0c0,.08-.07.15-.1.23h0a.56.56,0,0,0,0,.08h0l-.09.14h0l0,0,0,.05h0l-.15.16-.1.09a.27.27,0,0,1-.08.07,1.87,1.87,0,0,1-.41.25h0a1.8,1.8,0,0,1-.52.13h0l-.19,0-.18,0-.17,0-.2-.06-.16-.05-.18-.08a.91.91,0,0,1-.16-.11l-.23-.17-.15-.15,0-.05v5.49h0A11.59,11.59,0,0,0,98.31,401Z" transform="translate(-54.75 -345.99)"/></svg>