<svg xmlns="http://www.w3.org/2000/svg" viewBox="0 0 431.89 63.14"><defs><style>.cls-1,.cls-3{font-size:60px;font-family:Lato-Regular, Lato;}.cls-1,.cls-3,.cls-4{fill:#15151d;}.cls-1{letter-spacing:-0.1em;}.cls-2{letter-spacing:0em;}</style></defs><g id="Layer_2" data-name="Layer 2"><g id="Layer_1-2" data-name="Layer 1"><text class="cls-1" transform="translate(158.02 51.77)">T<tspan class="cls-2" x="29.1" y="0">ech</tspan></text><text class="cls-3" transform="translate(288.73 52.19)">Store</text><text class="cls-3" transform="translate(47.98 51.49)">saro</text><path class="cls-4" d="M26.22,49.46V42.82c-.44.13-.88.24-1.34.33v6.31a2.39,2.39,0,1,0,1.34,0Z"/><path class="cls-4" d="M35.36,44a2.39,2.39,0,0,0-2.29,1.72H31.49v-6h-.11a10.65,10.65,0,0,1-1.23,1.09V47h2.92A2.38,2.38,0,1,0,35.36,44Z"/><path class="cls-4" d="M10.34,31.11A12.25,12.25,0,0,1,22.59,18.86V8.52a22.28,22.28,0,0,0-2.6.15l-1.31,7.81-2.8,1.05-6.1-5A22.64,22.64,0,0,0,5,17l.11.05,4.7,6.4-1.2,2.74L.38,27s-.09.43-.19,1.19c0,.21,0,.44-.07.69a2.45,2.45,0,0,1,0,.27c-.06.66-.1,1.32-.1,2s0,1.32.09,2h0a20.87,20.87,0,0,0,.37,2.16H.54l3.32.32L8.37,36l1.24,2.73L5.12,45l-.06.09,0,0H5l0,.07H5a22.84,22.84,0,0,0,5,4.61l6.06-5,2.81,1,1.3,7.61,0,.1a21.76,21.76,0,0,0,2.44.14V43.35A12.24,12.24,0,0,1,10.34,31.11Z"/><path class="cls-4" d="M24.88,12.94v6.11a11.88,11.88,0,0,1,1.34.32V12.94a2.38,2.38,0,1,0-1.34,0Z"/><path class="cls-4" d="M43,28.75a2.4,2.4,0,0,0-2.29,1.72H34.88c0,.21,0,.42,0,.63s0,.47,0,.71h5.87A2.38,2.38,0,1,0,43,28.75Z"/><path class="cls-4" d="M31.28,22.39v-6h1.58a2.39,2.39,0,1,0,0-1.34H29.94v6.22a10.93,10.93,0,0,1,1.32,1.13Z"/><path class="cls-4" d="M39.07,23.57v1.57H33.35A12.67,12.67,0,0,1,34,26.48h6.42V23.57a2.39,2.39,0,1,0-1.34,0Z"/><path class="cls-4" d="M40.35,38.8V35.89H33.92a12.88,12.88,0,0,1-.67,1.34H39V38.8a2.39,2.39,0,1,0,1.35,0Z"/><path class="cls-4" d="M24.06,27.48a1.25,1.25,0,1,0-1.25-1.24A1.24,1.24,0,0,0,24.06,27.48Z"/><path class="cls-4" d="M24.06,37.28A1.25,1.25,0,1,0,22.81,36,1.25,1.25,0,0,0,24.06,37.28Z"/><path class="cls-4" d="M28.43,32.38a1.25,1.25,0,1,0-1.27-1.22A1.25,1.25,0,0,0,28.43,32.38Z"/><path class="cls-4" d="M34.17,31.14h0a11.59,11.59,0,0,0-11-11.57h-.59a11.58,11.58,0,0,0,0,23.16h0A11.58,11.58,0,0,0,34.17,31.14Zm-7.64-.21a1.89,1.89,0,0,1,3.77.21h0c0,.08,0,.15,0,.23a.06.06,0,0,0,0,0,1.16,1.16,0,0,1,0,.18v0a.6.6,0,0,1-.06.19v0a2.26,2.26,0,0,1-.11.22l-.09.13-.06.1-.12.13-.06.07-.08.07-.1.08-.18.12-.08.05-.12.06-.08,0-.26.08h0l-.16,0h-.21a1.89,1.89,0,0,1-1.84-1.45H21.4v-.65h5.13ZM17.21,26h5s0-.08,0-.12v0a1.38,1.38,0,0,1,.08-.27v0a1.83,1.83,0,0,1,.29-.51h0l.05-.06.14-.14.09-.08.13-.1.11-.06.15-.08.1-.05.26-.08h.1a1.86,1.86,0,0,1,.34,0,1.9,1.9,0,0,1,1.9,1.9h0a2.4,2.4,0,0,1,0,.28c0,.07,0,.13,0,.2a2.25,2.25,0,0,1-.08.24v0a2.08,2.08,0,0,1-.41.6l0,0a1.24,1.24,0,0,1-.22.18l0,0,0,0a1.83,1.83,0,0,1-.24.13l0,0-.05,0-.17.05a1.82,1.82,0,0,1-.52.08h0a1.43,1.43,0,0,1-.29,0h0l-.05,0-.16,0-.11,0a.88.88,0,0,1-.2-.09h0a1.59,1.59,0,0,1-.37-.27h0l0,0-.1-.11h0a2.66,2.66,0,0,1-.29-.45v0a2.25,2.25,0,0,1-.08-.24l0,0a.2.2,0,0,0,0-.07h-5Zm5,10.46h-5v-.65h5a.57.57,0,0,1,0-.13v0a1.38,1.38,0,0,1,.08-.27v0a1.83,1.83,0,0,1,.29-.51h0a1.85,1.85,0,0,1,1.47-.72A1.91,1.91,0,0,1,26,36h0a1.49,1.49,0,0,1,0,.21h0v0l0,.19v0a1.21,1.21,0,0,1,0,.18h0a1.63,1.63,0,0,1-.11.23v0l0,0h0l-.09.14h0l-.06.08a2.09,2.09,0,0,1-.14.17l-.1.09-.08.06a1.55,1.55,0,0,1-.41.25l0,0a1.89,1.89,0,0,1-.52.13h-.2l-.18,0-.17,0-.21,0-.15-.05-.18-.09L23,37.6a1.3,1.3,0,0,1-.23-.18l-.15-.15A1.91,1.91,0,0,1,22.22,36.47Z"/></g></g></svg>