<svg xmlns="http://www.w3.org/2000/svg" viewBox="0 0 162 163.59"><defs><style>.cls-1{fill:#15151d;}</style></defs><g id="Layer_2" data-name="Layer 2"><g id="Layer_1-2" data-name="Layer 1"><path class="cls-1" d="M36.89,81.48A43.68,43.68,0,0,1,80.57,37.8V.91a81,81,0,0,0-9.27.53L66.64,29.3,56.63,33,34.88,15.12a81.08,81.08,0,0,0-17.21,16l.39.17L34.82,54.17,30.52,64,1.36,66.68S1,68.23.69,70.94A81.48,81.48,0,0,0,0,81.48c0,2.37.11,4.71.31,7h0l.12,0h0a67.54,67.54,0,0,0,1.29,7.72h.17l11.85,1.16,16.1,1.56,4.42,9.73-16,22.4-.23.31-.12.16,0,.06-.18.24,0,0A81.27,81.27,0,0,0,35.54,148.3l21.6-18,10,3.71,4.65,27.13.06.39a83.32,83.32,0,0,0,8.7.47V125.16A43.68,43.68,0,0,1,36.89,81.48Z"/><path class="cls-1" d="M88.75,16.67V38.45a44.62,44.62,0,0,1,4.79,1.17V16.67a8.51,8.51,0,1,0-4.79,0Z"/><path class="cls-1" d="M153.49,73.08a8.52,8.52,0,0,0-8.16,6.11H124.41c0,.75,0,1.49,0,2.25s0,1.7-.08,2.54h21a8.51,8.51,0,1,0,8.16-10.9Z"/><path class="cls-1" d="M93.54,146.93V123.26a44.59,44.59,0,0,1-4.79,1.16v22.51a8.51,8.51,0,1,0,4.79,0Z"/><path class="cls-1" d="M111.59,50.37V28.93h5.61a8.51,8.51,0,1,0,0-4.78H106.81V46.33a42.88,42.88,0,0,1,4.69,4Z"/><path class="cls-1" d="M139.36,54.58V60.2H119A42.82,42.82,0,0,1,121.25,65h22.9V54.58a8.51,8.51,0,1,0-4.79,0Z"/><path class="cls-1" d="M143.92,108.92V98.52H121a41.25,41.25,0,0,1-2.41,4.79h20.55v5.61a8.5,8.5,0,1,0,4.78,0Z"/><path class="cls-1" d="M126.12,127.37a8.52,8.52,0,0,0-8.16,6.12h-5.61V112.06h-.41a44.8,44.8,0,0,1-4.37,3.89v22.32H118a8.51,8.51,0,1,0,8.16-10.9Z"/><polygon class="cls-1" points="108.38 81.49 108.38 81.49 108.38 81.49 108.38 81.49"/><circle class="cls-1" cx="86.28" cy="63.6" r="4.5"/><circle class="cls-1" cx="86.28" cy="98.92" r="4.5"/><path class="cls-1" d="M101.87,76.76a4.5,4.5,0,1,0,4.57,4.42A4.5,4.5,0,0,0,101.87,76.76Z"/><path class="cls-1" d="M122.71,81.27h0a41.75,41.75,0,0,0-39.6-41.7c-.71,0-1.43-.05-2.15-.05A41.75,41.75,0,0,0,81,123v0A41.76,41.76,0,0,0,122.71,81.27Zm-14,1c0,.22-.07.43-.12.64,0,0,0,.1,0,.16-.06.23-.14.46-.22.68,0,0,0,0,0,0a6.89,6.89,0,0,1-.4.82c-.09.16-.19.31-.3.47l-.23.34c-.13.17-.28.33-.43.49l-.23.25-.28.26-.36.28a5.39,5.39,0,0,1-.63.43l-.28.17-.47.22-.26.11a7.32,7.32,0,0,1-.94.29l-.21,0-.57.08-.23,0a4.58,4.58,0,0,1-.53,0,6.82,6.82,0,0,1-6.63-5.22H76.69V80.51H95.16a6.83,6.83,0,0,1,13.61.75h0a7.52,7.52,0,0,1,0,.82ZM61.6,62.78H79.53c0-.14,0-.28,0-.42a.76.76,0,0,1,0-.16,6.2,6.2,0,0,1,.27-1,1,1,0,0,0,0-.1,6.77,6.77,0,0,1,1-1.81h0l.2-.21a4.79,4.79,0,0,1,.49-.52l.34-.28a5.32,5.32,0,0,1,.47-.36c.12-.09.25-.16.38-.24l.54-.29.38-.17c.3-.11.61-.22.92-.3h0l.33-.06a7.14,7.14,0,0,1,1.24-.12,6.83,6.83,0,0,1,6.83,6.83c0,.23,0,.47,0,.7h0l-.27,1.33a6.56,6.56,0,0,1-.23.62,6.19,6.19,0,0,1-.63,1.16,6.65,6.65,0,0,1-.83,1c-.16.15-.32.3-.49.44l-.16.12c-.12.09-.24.19-.36.27l-.21.13c-.12.07-.23.15-.35.21l-.23.11c-.12.06-.24.13-.37.18l-.17.06-.46.17a6.79,6.79,0,0,1-2,.31c-.21,0-.41,0-.62,0l-.59-.08h0l-.09,0h0l-.18,0-.57-.16-.4-.13h0a7.5,7.5,0,0,1-.7-.33l0,0h0l-.07,0h0a6.85,6.85,0,0,1-1.35-1h0l-.13-.13a4.38,4.38,0,0,1-.36-.39h0a6.82,6.82,0,0,1-1.06-1.63l0-.06a8.18,8.18,0,0,1-.32-.87.83.83,0,0,0,0-.15c0-.07,0-.15,0-.22H61.6Zm18,37.72h-18V98.15H79.52c0-.16,0-.32.06-.47a1.1,1.1,0,0,1,0-.16,6.2,6.2,0,0,1,.27-1l0-.09a6.83,6.83,0,0,1,1-1.82v0a6.82,6.82,0,0,1,12.15,4.26h0c0,.26,0,.51,0,.77h0a.09.09,0,0,0,0,.05c0,.24-.07.47-.12.7,0,0,0,0,0,.06,0,.23-.12.45-.19.67l0,0h0a6,6,0,0,1-.37.82l-.09.17-.06.12h0a5.39,5.39,0,0,1-.33.5l-.07.1a1.27,1.27,0,0,1-.13.19h0a7.08,7.08,0,0,1-.52.59,4,4,0,0,1-.37.34l-.27.22a7.85,7.85,0,0,1-.66.47l-.11.06a5.54,5.54,0,0,1-.73.37l-.14.06a6,6,0,0,1-.82.27l-.18,0a6.08,6.08,0,0,1-.87.15h0c-.22,0-.44,0-.67,0A6.83,6.83,0,0,1,79.64,100.5Z"/></g></g></svg>