<svg xmlns="http://www.w3.org/2000/svg" xmlns:xlink="http://www.w3.org/1999/xlink" viewBox="0 0 461.93 336.98"><defs><style>.cls-1{fill:#4f7453;}.cls-2{fill:#668c68;}.cls-3{fill:#a6c4a8;}.cls-21,.cls-4{fill:none;}.cls-5{fill:#f29eb0;}.cls-6{fill:#f794ae;}.cls-7{clip-path:url(#clip-path);}.cls-8{fill:#1e5036;}.cls-9{fill:#fff;}.cls-10{clip-path:url(#clip-path-2);}.cls-11{clip-path:url(#clip-path-3);}.cls-12{clip-path:url(#clip-path-4);}.cls-13{clip-path:url(#clip-path-5);}.cls-14{clip-path:url(#clip-path-6);}.cls-15{fill:#15649e;}.cls-16{fill:#d3e3ed;}.cls-17{fill:#d10024;}.cls-18,.cls-27{fill:#0f557f;}.cls-19{fill:#e4eff7;}.cls-20{fill:#f5f5f5;}.cls-21{stroke:#0f557f;stroke-miterlimit:10;stroke-width:2.23px;}.cls-22{fill:#153a26;}.cls-23{fill:#1a2e35;}.cls-24{fill:#e1e1e1;}.cls-25{fill:#c0d3dd;}.cls-26{fill:#f7fafc;}.cls-27{font-size:37.14px;font-family:Poppins-ExtraBold, Poppins ExtraBold;font-weight:800;}.cls-28{fill:#1ac5cc;}.cls-29{fill:#e5c733;}.cls-30{fill:#f4d969;}.cls-31{clip-path:url(#clip-path-7);}</style><clipPath id="clip-path" transform="translate(-32.02 -71.02)"><path class="cls-1" d="M329.36,311.5c8.68-.31,17.36,1.54,25.91,3.38l24.57,5.28c8.54,1.84,17.25,3.74,24.84,7.91,9.68,5.31,16.78,14,21.56,23.27s7.43,19.28,10,29.2c-17.56-5.49-35.83-11.06-54-9.27-9.6,1-18.79,3.94-28.42,4.72-9,.72-18-.5-27-1.72-6.7-.9-13.88-2-18.88-6.31-7.78-6.7-6.89-17.82-5.38-27.22L304.29,330c.44-2.78.55-5.9,1.65-8.53,1.76-4.19,8.27-6.85,12.59-8.19C321.4,312.39,326.24,310.87,329.36,311.5Z"/></clipPath><clipPath id="clip-path-2" transform="translate(-32.02 -71.02)"><path class="cls-2" d="M322.13,299.33c4.41-2.49,9.43-3.67,14.07-5.69,9.33-4.06,17.05-11.44,26.72-14.6,12.92-4.23,27-.22,39.69,4.66a248.42,248.42,0,0,1,30.77,14.22q-8.53.07-17.05.5c-10,.49-20.32,1.45-28.88,6.58-10.83,6.48-17,18.5-26.43,26.88A49.38,49.38,0,0,1,323.82,344c-4.12-.41-8.45-1.9-11-5.28-2.21-2.88-2.76-6.05-3.53-9.52a28.54,28.54,0,0,1,4-21.42A25.57,25.57,0,0,1,322.13,299.33Z"/></clipPath><clipPath id="clip-path-3" transform="translate(-32.02 -71.02)"><path class="cls-3" d="M324.15,241.83c5.56-5,12.88-7.64,18.62-12.42,4.61-3.84,8.08-9,13-12.46,4.07-2.9,8.91-4.5,13.66-6.06l41.79-13.72c-9.39,8-7.71,23.59-15.73,32.94-3.35,3.9-8.12,6.36-11.54,10.2-4.64,5.21-6.31,12.33-9.54,18.5s-7.95,11.3-12.63,16.38l-21.57,23.4c-3.83,4.15-7.82,8.42-13,10.65s-11.95,1.83-15.64-2.45c-2.53-2.93-3.15-7-3.37-10.89a49.47,49.47,0,0,1,.53-13.09c.58-2.74,1.79-5.27,2.26-8.05,1.34-7.79,2.2-15.5,5.69-22.72A32.61,32.61,0,0,1,324.15,241.83Z"/></clipPath><clipPath id="clip-path-4" transform="translate(-32.02 -71.02)"><path class="cls-1" d="M171.28,227.87c-8.68-.31-17.36,1.54-25.91,3.38l-24.57,5.28c-8.54,1.84-17.25,3.74-24.84,7.91-9.68,5.31-16.78,14-21.56,23.27S67,287,64.39,296.91c17.56-5.49,35.83-11.06,54-9.27,9.61.95,18.79,3.94,28.43,4.72,9,.72,18-.5,27-1.72,6.7-.9,13.88-2,18.88-6.31,7.78-6.7,6.89-17.82,5.38-27.22l-1.74-10.75c-.44-2.78-.55-5.9-1.65-8.53-1.76-4.19-8.27-6.85-12.59-8.19C179.24,228.76,174.4,227.24,171.28,227.87Z"/></clipPath><clipPath id="clip-path-5" transform="translate(-32.02 -71.02)"><path class="cls-2" d="M178.51,215.7c-4.41-2.49-9.43-3.67-14.07-5.69-9.33-4.06-17.05-11.44-26.72-14.6-12.92-4.23-27-.22-39.69,4.66a248.42,248.42,0,0,0-30.77,14.22q8.53.08,17,.5c10,.49,20.32,1.45,28.88,6.58,10.83,6.48,17,18.5,26.43,26.88a49.38,49.38,0,0,0,37.2,12.07c4.11-.41,8.45-1.9,11-5.28,2.21-2.87,2.76-6,3.53-9.52a28.5,28.5,0,0,0-4-21.42A25.46,25.46,0,0,0,178.51,215.7Z"/></clipPath><clipPath id="clip-path-6" transform="translate(-32.02 -71.02)"><path class="cls-3" d="M176.49,158.2c-5.56-5-12.88-7.63-18.62-12.42-4.61-3.84-8.08-9-13-12.46-4.07-2.9-8.91-4.5-13.66-6.06L89.45,113.54c9.39,8,7.71,23.59,15.73,32.94,3.35,3.91,8.12,6.36,11.54,10.2,4.64,5.21,6.31,12.33,9.54,18.5s8,11.3,12.63,16.38L160.46,215c3.83,4.15,7.82,8.42,13,10.65s11.95,1.83,15.64-2.45c2.53-2.93,3.15-7,3.37-10.89a49.38,49.38,0,0,0-.53-13.08c-.58-2.75-1.79-5.28-2.26-8.06-1.34-7.79-2.2-15.49-5.69-22.72A32.61,32.61,0,0,0,176.49,158.2Z"/></clipPath><clipPath id="clip-path-7" transform="translate(-32.02 -71.02)"><rect class="cls-4" x="118.31" y="273.42" width="159.31" height="100.63"/></clipPath></defs><g id="OBJECTS"><path class="cls-5" d="M45.78,391.51H461.6c1.88-23.89,3.27-49.27,2.78-73.23-.48-23.56-2.63-48.6-16.75-67.47-11.25-15-28.74-24.2-41.14-38.3-13.36-15.21-19.9-35-26.67-54.1-3.91-11-8-22-13.85-32C345.76,91.45,305,70.43,264.68,71S185.5,92.62,160.19,124c-17.82,22.11-29.24,48.77-46.71,71.15-8.87,11.36-19.21,21.51-28.28,32.72C49.51,272,33,336.22,45.78,391.51Z" transform="translate(-32.02 -71.02)"/><path class="cls-6" d="M127.26,284.48c.23.65.43,1.31.62,2a40.85,40.85,0,0,1-3.59,30.88c-4.24,7.59-10.79,13.57-16.47,20.16s-10.73,14.41-10.93,23.11c-.16,6.63,2.3,14.16-1.86,19.33-5,6.2-15.61,3.19-20.5-3.09-6.85-8.8-5-18.1-1.31-27.54,4.15-10.59,5-20.61,1.31-31.49-3.32-9.65-7.69-19.76-5.29-29.68,3-12.39,12.94-24.65,26.25-26.75C110.26,259.06,122.75,271.41,127.26,284.48Z" transform="translate(-32.02 -71.02)"/><path class="cls-1" d="M329.36,311.5c8.68-.31,17.36,1.54,25.91,3.38l24.57,5.28c8.54,1.84,17.25,3.74,24.84,7.91,9.68,5.31,16.78,14,21.56,23.27s7.43,19.28,10,29.2c-17.56-5.49-35.83-11.06-54-9.27-9.6,1-18.79,3.94-28.42,4.72-9,.72-18-.5-27-1.72-6.7-.9-13.88-2-18.88-6.31-7.78-6.7-6.89-17.82-5.38-27.22L304.29,330c.44-2.78.55-5.9,1.65-8.53,1.76-4.19,8.27-6.85,12.59-8.19C321.4,312.39,326.24,310.87,329.36,311.5Z" transform="translate(-32.02 -71.02)"/><g class="cls-7"><path class="cls-8" d="M414.88,333.62c-16.46-2.27-33.12,1.47-49.14,5.87s-32.08,9.54-48.68,10.14a6.79,6.79,0,0,1-3.55-.53,5.37,5.37,0,0,1-2.2-2.71c-1.79-4.17-.74-9.16,1.72-13s6.16-6.66,10-9.17c7.94-5.25,16.73-9.44,26.1-11.11,8.27-1.48,16.76-1,25.09.06,6.33.78,12.67,1.87,18.58,4.25,10.15,4.08,18.39,11.69,26.39,19.14" transform="translate(-32.02 -71.02)"/><path class="cls-9" d="M436.54,381.11l-1.58-1.7-1.61-1.67-1.66-1.61-1.7-1.58q-3.42-3.14-7.1-6a145.63,145.63,0,0,0-15.43-10.34,130.52,130.52,0,0,0-16.64-8.33c-2.87-1.19-5.82-2.21-8.8-3.11s-6-1.63-9.06-2.26c-12.22-2.44-24.65-3.08-37-3.11-6.18,0-12.37.21-18.53.56-3.09.18-6.17.4-9.25.64l-4.61.37-4.62.43,9.26-.31c3.08-.1,6.17-.19,9.25-.23q9.26-.19,18.49,0c1.54,0,3.07.07,4.61.14s3.08.12,4.61.19c3.08.16,6.15.36,9.21.62a156.82,156.82,0,0,1,18.22,2.52c3,.61,6,1.33,8.91,2.18s5.83,1.88,8.67,3a140.18,140.18,0,0,1,16.58,8,162.92,162.92,0,0,1,15.61,9.82c2.5,1.78,4.95,3.65,7.31,5.62l1.76,1.5,1.73,1.53,1.71,1.57Z" transform="translate(-32.02 -71.02)"/></g><path class="cls-2" d="M322.13,299.33c4.41-2.49,9.43-3.67,14.07-5.69,9.33-4.06,17.05-11.44,26.72-14.6,12.92-4.23,27-.22,39.69,4.66a248.42,248.42,0,0,1,30.77,14.22q-8.53.07-17.05.5c-10,.49-20.32,1.45-28.88,6.58-10.83,6.48-17,18.5-26.43,26.88A49.38,49.38,0,0,1,323.82,344c-4.12-.41-8.45-1.9-11-5.28-2.21-2.88-2.76-6.05-3.53-9.52a28.54,28.54,0,0,1,4-21.42A25.57,25.57,0,0,1,322.13,299.33Z" transform="translate(-32.02 -71.02)"/><g class="cls-10"><path class="cls-3" d="M313.75,341.46a117.42,117.42,0,0,1,12.35-13.07c2.19-2,4.48-4,6.78-5.9s4.66-3.76,7.06-5.57c4.78-3.62,9.64-7.14,14.52-10.63s9.76-7,15.13-9.56a47,47,0,0,1,17.11-4.55,53.17,53.17,0,0,1,8.92.17c3,.29,5.93.73,8.9,1.18l17.8,2.75c3,.44,5.93.9,8.86,1.53a53,53,0,0,1,8.62,2.55,49.28,49.28,0,0,0-8.55-2.84c-2.92-.71-5.89-1.25-8.84-1.78l-17.76-3.05c-3-.51-5.93-1-8.94-1.29a53.84,53.84,0,0,0-9.07-.23,48,48,0,0,0-17.53,4.57c-5.47,2.65-10.38,6.21-15.24,9.73-2.43,1.77-4.86,3.53-7.27,5.32q-1.82,1.33-3.61,2.7c-1.19.92-2.39,1.82-3.57,2.76-2.37,1.85-4.69,3.77-7,5.7-1.13,1-2.28,2-3.39,3l-1.67,1.51L325.73,328c-1.1,1-2.13,2.12-3.2,3.18L321,332.82l-.77.82-.75.84C317.43,336.7,315.57,339.07,313.75,341.46Z" transform="translate(-32.02 -71.02)"/><path class="cls-8" d="M352.54,294.82c4.81-2.2,9.77-4.05,14.51-6.4,8-4,15.28-9.28,22.49-14.56a81.8,81.8,0,0,0-63.72,12.83,26.09,26.09,0,0,0-7.5,7.26,11.36,11.36,0,0,0-1.42,9.62,9.64,9.64,0,0,0,7,5.67c2.42.48,4.58-.82,6.57-2,3.31-2,6.6-4.11,10-6.06C344.38,298.86,348.4,296.71,352.54,294.82Z" transform="translate(-32.02 -71.02)"/></g><path class="cls-3" d="M324.15,241.83c5.56-5,12.88-7.64,18.62-12.42,4.61-3.84,8.08-9,13-12.46,4.07-2.9,8.91-4.5,13.66-6.06l41.79-13.72c-9.39,8-7.71,23.59-15.73,32.94-3.35,3.9-8.12,6.36-11.54,10.2-4.64,5.21-6.31,12.33-9.54,18.5s-7.95,11.3-12.63,16.38l-21.57,23.4c-3.83,4.15-7.82,8.42-13,10.65s-11.95,1.83-15.64-2.45c-2.53-2.93-3.15-7-3.37-10.89a49.47,49.47,0,0,1,.53-13.09c.58-2.74,1.79-5.27,2.26-8.05,1.34-7.79,2.2-15.5,5.69-22.72A32.61,32.61,0,0,1,324.15,241.83Z" transform="translate(-32.02 -71.02)"/><g class="cls-11"><path class="cls-2" d="M306.09,300.46q5.13-7.84,11-15.19c3.9-4.88,8-9.59,12.26-14.16s8.67-9,13.17-13.33,9.12-8.53,13.78-12.69c9.31-8.33,18.84-16.43,28.27-24.65l14.14-12.31,14.1-12.38-14.33,12.1L384.17,220c-4.77,4.05-9.5,8.13-14.25,12.2s-9.46,8.17-14.14,12.33S346.52,253,342,257.3s-8.9,8.8-13.12,13.42-8.27,9.4-12.12,14.33S309.41,295.16,306.09,300.46Z" transform="translate(-32.02 -71.02)"/></g><path class="cls-1" d="M171.28,227.87c-8.68-.31-17.36,1.54-25.91,3.38l-24.57,5.28c-8.54,1.84-17.25,3.74-24.84,7.91-9.68,5.31-16.78,14-21.56,23.27S67,287,64.39,296.91c17.56-5.49,35.83-11.06,54-9.27,9.61.95,18.79,3.94,28.43,4.72,9,.72,18-.5,27-1.72,6.7-.9,13.88-2,18.88-6.31,7.78-6.7,6.89-17.82,5.38-27.22l-1.74-10.75c-.44-2.78-.55-5.9-1.65-8.53-1.76-4.19-8.27-6.85-12.59-8.19C179.24,228.76,174.4,227.24,171.28,227.87Z" transform="translate(-32.02 -71.02)"/><g class="cls-12"><path class="cls-8" d="M85.76,250c16.46-2.26,33.12,1.47,49.14,5.88S167,265.4,183.58,266a6.89,6.89,0,0,0,3.55-.52,5.44,5.44,0,0,0,2.2-2.72c1.79-4.17.74-9.16-1.72-13s-6.16-6.66-10-9.17c-7.94-5.25-16.73-9.44-26.1-11.11-8.27-1.48-16.76-1-25.1.06-6.32.78-12.66,1.87-18.58,4.25C97.74,237.9,89.5,245.51,81.5,253" transform="translate(-32.02 -71.02)"/><path class="cls-9" d="M64.1,297.48l1.57-1.7,1.62-1.66L69,292.5l1.7-1.58q3.42-3.14,7.1-6a144.2,144.2,0,0,1,15.43-10.35,130.52,130.52,0,0,1,16.64-8.33c2.87-1.19,5.82-2.21,8.8-3.11s6-1.63,9.06-2.26c12.22-2.44,24.65-3.08,37-3.11,6.18,0,12.37.21,18.53.56,3.09.18,6.17.4,9.25.64l4.61.37,4.62.44-9.26-.32c-3.08-.1-6.17-.18-9.25-.23q-9.25-.19-18.49,0c-1.54,0-3.08.07-4.61.14s-3.08.12-4.61.19c-3.08.16-6.15.36-9.21.62a156.82,156.82,0,0,0-18.22,2.52c-3,.61-6,1.33-8.92,2.18s-5.82,1.88-8.66,3a140.18,140.18,0,0,0-16.58,8,162.92,162.92,0,0,0-15.61,9.82c-2.5,1.78-5,3.65-7.32,5.62l-1.75,1.5-1.73,1.54-1.71,1.56Z" transform="translate(-32.02 -71.02)"/></g><path class="cls-2" d="M178.51,215.7c-4.41-2.49-9.43-3.67-14.07-5.69-9.33-4.06-17.05-11.44-26.72-14.6-12.92-4.23-27-.22-39.69,4.66a248.42,248.42,0,0,0-30.77,14.22q8.53.08,17,.5c10,.49,20.32,1.45,28.88,6.58,10.83,6.48,17,18.5,26.43,26.88a49.38,49.38,0,0,0,37.2,12.07c4.11-.41,8.45-1.9,11-5.28,2.21-2.87,2.76-6,3.53-9.52a28.5,28.5,0,0,0-4-21.42A25.46,25.46,0,0,0,178.51,215.7Z" transform="translate(-32.02 -71.02)"/><g class="cls-13"><path class="cls-3" d="M186.89,257.83a117.42,117.42,0,0,0-12.35-13.07c-2.19-2-4.48-4-6.78-5.9s-4.67-3.76-7.06-5.57c-4.78-3.62-9.64-7.13-14.52-10.63s-9.76-7-15.13-9.56a47,47,0,0,0-17.11-4.55,53.17,53.17,0,0,0-8.92.17c-3,.29-5.93.73-8.9,1.18l-17.8,2.75c-3,.44-5.93.9-8.86,1.53a54,54,0,0,0-8.62,2.55,49.28,49.28,0,0,1,8.55-2.84c2.92-.71,5.89-1.25,8.84-1.78L96,209.06c3-.51,5.93-1,8.94-1.29a54.91,54.91,0,0,1,9.07-.23,48,48,0,0,1,17.53,4.57c5.47,2.65,10.38,6.21,15.24,9.73,2.42,1.77,4.86,3.53,7.27,5.32q1.82,1.34,3.61,2.7c1.19.92,2.39,1.82,3.57,2.76,2.37,1.85,4.69,3.77,7,5.7,1.13,1,2.28,2,3.39,3l1.67,1.51,1.64,1.56c1.1,1,2.13,2.12,3.2,3.18l1.55,1.64.77.82.75.85C183.21,253.07,185.07,255.44,186.89,257.83Z" transform="translate(-32.02 -71.02)"/><path class="cls-8" d="M148.1,211.19c-4.81-2.2-9.78-4.05-14.52-6.4-8-4-15.27-9.28-22.48-14.56a81.8,81.8,0,0,1,63.72,12.83,26.09,26.09,0,0,1,7.5,7.26,11.36,11.36,0,0,1,1.42,9.62,9.64,9.64,0,0,1-7,5.67c-2.43.48-4.58-.82-6.57-2-3.31-2-6.61-4.11-10-6C156.26,215.24,152.24,213.08,148.1,211.19Z" transform="translate(-32.02 -71.02)"/></g><path class="cls-3" d="M176.49,158.2c-5.56-5-12.88-7.63-18.62-12.42-4.61-3.84-8.08-9-13-12.46-4.07-2.9-8.91-4.5-13.66-6.06L89.45,113.54c9.39,8,7.71,23.59,15.73,32.94,3.35,3.91,8.12,6.36,11.54,10.2,4.64,5.21,6.31,12.33,9.54,18.5s8,11.3,12.63,16.38L160.46,215c3.83,4.15,7.82,8.42,13,10.65s11.95,1.83,15.64-2.45c2.53-2.93,3.15-7,3.37-10.89a49.38,49.38,0,0,0-.53-13.08c-.58-2.75-1.79-5.28-2.26-8.06-1.34-7.79-2.2-15.49-5.69-22.72A32.61,32.61,0,0,0,176.49,158.2Z" transform="translate(-32.02 -71.02)"/><g class="cls-14"><path class="cls-2" d="M194.55,216.83q-5.13-7.85-11-15.19c-3.9-4.87-8-9.59-12.26-14.16s-8.67-9-13.17-13.32-9.12-8.54-13.78-12.7c-9.32-8.33-18.84-16.43-28.27-24.65L102,124.5l-14.1-12.38,14.33,12.1,14.28,12.16c4.77,4.05,9.5,8.13,14.25,12.2s9.46,8.17,14.14,12.33,9.26,8.42,13.76,12.76,8.9,8.8,13.12,13.42,8.27,9.4,12.12,14.33S191.23,211.53,194.55,216.83Z" transform="translate(-32.02 -71.02)"/></g><rect class="cls-15" x="142.95" y="13.98" width="162.85" height="306.91" rx="12.79"/><path class="cls-16" d="M268.68,97.25H244.11a1.5,1.5,0,0,1-1.49-1.5h0a1.49,1.49,0,0,1,1.49-1.49h24.57a1.5,1.5,0,0,1,1.5,1.49h0A1.5,1.5,0,0,1,268.68,97.25Z" transform="translate(-32.02 -71.02)"/><rect class="cls-16" x="155.59" y="58.16" width="136.91" height="248.85"/><polygon class="cls-17" points="150.57 58.24 132.21 58.24 143.38 33.56 159.66 33.56 150.57 58.24"/><polygon class="cls-15" points="168.94 58.24 150.57 58.24 159.66 33.56 175.93 33.56 168.94 58.24"/><polygon class="cls-17" points="187.29 58.26 168.93 58.26 175.92 33.59 192.2 33.59 187.29 58.26"/><polygon class="cls-15" points="205.66 58.26 187.29 58.26 192.2 33.59 208.47 33.59 205.66 58.26"/><polygon class="cls-17" points="224.02 58.29 205.65 58.29 208.47 33.62 224.75 33.62 224.02 58.29"/><polygon class="cls-15" points="242.39 58.29 224.02 58.29 224.75 33.62 241.02 33.62 242.39 58.29"/><polygon class="cls-17" points="260.75 58.32 242.39 58.32 241.03 33.64 257.31 33.64 260.75 58.32"/><polygon class="cls-15" points="279.12 58.32 260.75 58.32 257.31 33.64 273.59 33.64 279.12 58.32"/><polygon class="cls-17" points="297.5 58.34 279.13 58.34 273.59 33.67 289.87 33.67 297.5 58.34"/><polygon class="cls-15" points="315.87 58.34 297.5 58.34 289.87 33.67 306.16 33.67 315.87 58.34"/><path class="cls-17" d="M132.26,58.24h18.38a0,0,0,0,1,0,0v5.13A8.65,8.65,0,0,1,142,72h-1.08a8.65,8.65,0,0,1-8.65-8.65V58.24A0,0,0,0,1,132.26,58.24Z"/><path class="cls-18" d="M150.65,58.24H169a0,0,0,0,1,0,0v5.13A8.65,8.65,0,0,1,160.38,72H159.3a8.65,8.65,0,0,1-8.65-8.65V58.24A0,0,0,0,1,150.65,58.24Z"/><path class="cls-17" d="M169,58.24h18.38a0,0,0,0,1,0,0v5.13A8.65,8.65,0,0,1,178.71,72h-1.08A8.65,8.65,0,0,1,169,63.36V58.24A0,0,0,0,1,169,58.24Z"/><path class="cls-18" d="M187.36,58.24h18.38a0,0,0,0,1,0,0v5.13A8.65,8.65,0,0,1,197.09,72H196a8.65,8.65,0,0,1-8.65-8.65V58.24A0,0,0,0,1,187.36,58.24Z"/><path class="cls-17" d="M205.68,58.24h18.38a0,0,0,0,1,0,0v5.13A8.65,8.65,0,0,1,215.42,72h-1.08a8.65,8.65,0,0,1-8.65-8.65V58.24A0,0,0,0,1,205.68,58.24Z"/><path class="cls-18" d="M224.07,58.24h18.38a0,0,0,0,1,0,0v5.13A8.65,8.65,0,0,1,233.8,72h-1.08a8.65,8.65,0,0,1-8.65-8.65V58.24A0,0,0,0,1,224.07,58.24Z"/><path class="cls-17" d="M242.39,58.24h18.38a0,0,0,0,1,0,0v5.13A8.65,8.65,0,0,1,252.13,72H251a8.65,8.65,0,0,1-8.65-8.65V58.24A0,0,0,0,1,242.39,58.24Z"/><path class="cls-18" d="M260.78,58.24h18.38a0,0,0,0,1,0,0v5.13A8.65,8.65,0,0,1,270.51,72h-1.08a8.65,8.65,0,0,1-8.65-8.65V58.24A0,0,0,0,1,260.78,58.24Z"/><path class="cls-17" d="M279.1,58.24h18.38a0,0,0,0,1,0,0v5.13A8.65,8.65,0,0,1,288.84,72h-1.08a8.65,8.65,0,0,1-8.65-8.65V58.24A0,0,0,0,1,279.1,58.24Z"/><path class="cls-18" d="M297.49,58.24h18.38a0,0,0,0,1,0,0v5.13A8.65,8.65,0,0,1,307.22,72h-1.08a8.65,8.65,0,0,1-8.65-8.65V58.24A0,0,0,0,1,297.49,58.24Z"/><polygon class="cls-18" points="143 33.48 305.77 33.48 305.77 26.78 143 33.48"/><rect class="cls-19" x="156.81" y="82.19" width="63.04" height="92.8" rx="4.38"/><path class="cls-9" d="M193.21,220.07a.64.64,0,0,1-.64-.64V157.6a.66.66,0,0,1,.64-.65h54.28a.66.66,0,0,1,.64.65v61.83a.66.66,0,0,1-.64.64Z" transform="translate(-32.02 -71.02)"/><rect class="cls-19" x="199.45" y="156.61" width="13.23" height="2.58" rx="0.55"/><rect class="cls-19" x="199.45" y="160.73" width="13.23" height="2.58" rx="0.55"/><rect class="cls-19" x="199.45" y="164.85" width="13.23" height="2.58" rx="0.55"/><path class="cls-17" d="M258.91,153.21a7.68,7.68,0,1,0-7.68,7.68A7.67,7.67,0,0,0,258.91,153.21Z" transform="translate(-32.02 -71.02)"/><path class="cls-20" d="M252.41,153.21l1.82-1.82a.83.83,0,0,0-.59-1.41.82.82,0,0,0-.58.24L251.24,152l-1.83-1.82a.83.83,0,0,0-1.17,1.17l1.83,1.82L248.24,155a.82.82,0,1,0,1.17,1.16l1.83-1.82,1.82,1.82a.79.79,0,0,0,.58.25.81.81,0,0,0,.59-.25.82.82,0,0,0,0-1.16Z" transform="translate(-32.02 -71.02)"/><path class="cls-19" d="M316.7,287.44a4.39,4.39,0,0,1-4.38,4.38H258a4.39,4.39,0,0,1-4.38-4.38v-84A4.4,4.4,0,0,1,258,199h54.28a4.4,4.4,0,0,1,4.38,4.38Z" transform="translate(-32.02 -71.02)"/><path class="cls-9" d="M258,265.88a.65.65,0,0,1-.64-.64V203.4a.66.66,0,0,1,.64-.64h54.28a.66.66,0,0,1,.64.64v61.84a.66.66,0,0,1-.64.64Z" transform="translate(-32.02 -71.02)"/><rect class="cls-19" x="264.28" y="202.42" width="13.23" height="2.58" rx="0.55"/><rect class="cls-19" x="264.28" y="206.54" width="13.23" height="2.58" rx="0.55"/><rect class="cls-19" x="264.28" y="210.66" width="13.23" height="2.58" rx="0.55"/><path class="cls-17" d="M323.74,199a7.68,7.68,0,1,0-7.68,7.68A7.67,7.67,0,0,0,323.74,199Z" transform="translate(-32.02 -71.02)"/><path class="cls-20" d="M317.23,199l1.83-1.82a.83.83,0,0,0-.59-1.41.82.82,0,0,0-.58.24l-1.83,1.82L314.24,196a.83.83,0,1,0-1.17,1.17L314.9,199l-1.83,1.82a.83.83,0,0,0,0,1.17.82.82,0,0,0,1.17,0l1.82-1.82,1.83,1.82a.82.82,0,0,0,.58.24.83.83,0,0,0,.59-1.41Z" transform="translate(-32.02 -71.02)"/><line class="cls-21" y1="321.27" x2="444.18" y2="321.27"/><path class="cls-18" d="M406.23,258.07c-3.87,3.74-3.54,9.23-3.48,9.86v8a.95.95,0,0,0,1.9,0v-8.16c0-.05-.46-5.1,2.9-8.35a1,1,0,0,0,0-1.35A.94.94,0,0,0,406.23,258.07Z" transform="translate(-32.02 -71.02)"/><path class="cls-18" d="M415.88,254.76a19.84,19.84,0,0,0-3.46.29,1,1,0,0,0,.17,1.89h.18a16.83,16.83,0,0,1,3.11-.27,1,1,0,0,0,0-1.9Z" transform="translate(-32.02 -71.02)"/><path class="cls-18" d="M414.38,254.76a.95.95,0,1,0,0,1.9c3.86,0,6.79,1.07,8.7,3.17,2.94,3.23,2.53,7.92,2.53,8s0,.07,0,.1V276a1,1,0,0,0,1.91,0v-8c.05-.6.36-5.66-3-9.37C422.22,256,418.81,254.76,414.38,254.76Z" transform="translate(-32.02 -71.02)"/><rect class="cls-22" x="349.79" y="196.85" width="67.46" height="77.54"/><path class="cls-18" d="M441.61,268.78a1,1,0,0,0-1,1v52.31a1,1,0,0,0,1.91,0V269.74A1,1,0,0,0,441.61,268.78Z" transform="translate(-32.02 -71.02)"/><rect class="cls-8" x="342.3" y="196.85" width="59.5" height="77.54"/><path class="cls-18" d="M442.33,336.36a1,1,0,0,0-1.32,1.38l7.66,7.31a1,1,0,0,0,.66.26,1,1,0,0,0,.66-1.64Z" transform="translate(-32.02 -71.02)"/><path class="cls-18" d="M441.67,326.06a1,1,0,0,0-1,1v9.61l-7.48,7a1,1,0,0,0,0,1.35.94.94,0,0,0,1.34,0l7.79-7.31a1,1,0,0,0,.3-.69V327A1,1,0,0,0,441.67,326.06Z" transform="translate(-32.02 -71.02)"/><circle class="cls-22" cx="360.68" cy="204.93" r="4.2"/><circle class="cls-22" cx="383.11" cy="204.93" r="4.2"/><path class="cls-18" d="M404.82,254.76c-4.43,0-7.84,1.27-10.13,3.8-3.36,3.71-3.05,8.77-3,9.37v8a1,1,0,0,0,1.91,0v-8.16s-.43-4.7,2.52-8c1.91-2.11,4.84-3.18,8.71-3.18a1,1,0,0,0,0-1.9Z" transform="translate(-32.02 -71.02)"/><path class="cls-18" d="M403.32,254.76a1,1,0,1,0,0,1.9c3.86,0,6.79,1.07,8.7,3.17,2.94,3.23,2.53,7.92,2.53,8s0,.07,0,.1V276a1,1,0,0,0,1.91,0v-8c.05-.6.36-5.66-3-9.37C411.16,256,407.75,254.76,403.32,254.76Z" transform="translate(-32.02 -71.02)"/><circle class="cls-23" cx="394.37" cy="311.53" r="12.43"/><circle class="cls-24" cx="394.37" cy="311.53" r="7.08"/><circle class="cls-23" cx="314.04" cy="311.53" r="12.43"/><circle class="cls-24" cx="314.04" cy="311.53" r="7.08"/><path class="cls-23" d="M458,268.31,457,280l-2.33,26.47L452.16,335l-1.53,17.42c0,.37-.08.75-.1,1.13a15.36,15.36,0,0,1-2.18,7.61,14.46,14.46,0,0,1-12.3,6.7H329.1a1.5,1.5,0,0,0,0,3h106a20,20,0,0,0,8.18-1.51,17.29,17.29,0,0,0,7.55-6.53,18.48,18.48,0,0,0,2.68-9.24c.21-4.05.71-8.09,1.06-12.13l2.38-27,2.5-28.56,1.47-16.73.07-.81c.17-1.93-2.83-1.92-3,0Z" transform="translate(-32.02 -71.02)"/><circle class="cls-23" cx="457.01" cy="149.25" r="4.92"/><path class="cls-23" d="M458,278.42l-2.63,20.88-4,31.5-.5,4a16.6,16.6,0,0,1-.45,3c-1.76,5.44-8.82,7.18-13.82,7.19H331a37.43,37.43,0,0,1-6-.24c-3.72-.61-7.81-2.33-9.75-5.76a9.78,9.78,0,0,1-.94-3.86l-3.25-26L307.58,281l-.2-1.61-1.5,1.5,15.28-.09,36.7-.22,44.39-.26,38.37-.23c6.2,0,12.44.12,18.64-.11h.25a1.5,1.5,0,0,0,0-3l-15.28.1-36.69.21-44.39.27-38.38.23c-6.2,0-12.43-.12-18.63.11h-.26a1.51,1.51,0,0,0-1.5,1.5l2.73,21.86,3.86,31c.38,3,.39,6.45,2.18,9,3.41,4.93,9.72,6.74,15.45,6.75H435a27.08,27.08,0,0,0,9.54-1.29c3.61-1.34,7.05-3.76,8.54-7.44a16.57,16.57,0,0,0,.77-4.18l3.34-26.57,3.59-28.44.2-1.63C461.25,276.51,458.25,276.53,458,278.42Z" transform="translate(-32.02 -71.02)"/><path class="cls-23" d="M458.54,287.67H325.66c-6.1,0-12.24-.2-18.34,0h-.26a1.13,1.13,0,0,0,0,2.25H439.94c6.1,0,12.24.2,18.34,0h.26a1.13,1.13,0,0,0,0-2.25Z" transform="translate(-32.02 -71.02)"/><path class="cls-23" d="M456.45,301.61H326.94c-5.95,0-11.95-.21-17.9,0h-.24a1.13,1.13,0,0,0,0,2.25H438.31c5.95,0,11.95.2,17.89,0h.25a1.13,1.13,0,0,0,0-2.25Z" transform="translate(-32.02 -71.02)"/><path class="cls-23" d="M454.69,315.55H328.26c-5.81,0-11.66-.21-17.47,0h-.25a1.13,1.13,0,0,0,0,2.25H437c5.81,0,11.66.2,17.47,0h.25a1.13,1.13,0,0,0,0-2.25Z" transform="translate(-32.02 -71.02)"/><path class="cls-23" d="M453.71,329.49h-124c-5.71,0-11.46-.21-17.16,0h-.23a1.13,1.13,0,0,0,0,2.25h124c5.71,0,11.46.2,17.16,0h.23a1.13,1.13,0,0,0,0-2.25Z" transform="translate(-32.02 -71.02)"/><path class="cls-23" d="M438.58,278.53v67.53a1.13,1.13,0,0,0,2.25,0V278.53a1.13,1.13,0,0,0-2.25,0Z" transform="translate(-32.02 -71.02)"/><path class="cls-23" d="M416,278.68v67.53a1.13,1.13,0,0,0,2.25,0V278.68a1.13,1.13,0,0,0-2.25,0Z" transform="translate(-32.02 -71.02)"/><path class="cls-23" d="M393.38,278.93v67.54a1.13,1.13,0,0,0,2.25,0V278.93a1.13,1.13,0,0,0-2.25,0Z" transform="translate(-32.02 -71.02)"/><path class="cls-23" d="M370.78,278.93v67.54a1.13,1.13,0,0,0,2.25,0V278.93a1.13,1.13,0,0,0-2.25,0Z" transform="translate(-32.02 -71.02)"/><path class="cls-23" d="M348.17,279.84v66.63a1.13,1.13,0,0,0,2.25,0V279.84a1.13,1.13,0,0,0-2.25,0Z" transform="translate(-32.02 -71.02)"/><path class="cls-23" d="M325.57,279.84v66.58a1.13,1.13,0,0,0,2.25,0V279.84a1.13,1.13,0,0,0-2.25,0Z" transform="translate(-32.02 -71.02)"/><path class="cls-23" d="M460.81,269.06l9.94-16.17L486.68,227l3.65-5.94c1-1.65-1.58-3.15-2.59-1.51l-9.94,16.17-15.93,25.92-3.65,5.94c-1,1.65,1.58,3.16,2.59,1.51Z" transform="translate(-32.02 -71.02)"/><path class="cls-25" d="M113,144.71h28.12v22.85h-1.46s0,0,0,0a2.73,2.73,0,0,0-5.43,0s0,0,0,0h-1.74v0a2.72,2.72,0,0,0-5.42,0v0h-1.73v0a2.73,2.73,0,0,0-5.43,0s0,0,0,0h-1.74s0,0,0,0a2.73,2.73,0,0,0-5.43,0v0h-1.73v0a2.73,2.73,0,0,0-5.43,0s0,0,0,0h-1.74s0,0,0,0a2.73,2.73,0,0,0-5.43,0v0H95.88v-7.08C95.88,151.77,103.55,144.71,113,144.71Z" transform="translate(-32.02 -71.02)"/><path class="cls-26" d="M125.12,144.71h28.12c9.47,0,17.14,7.06,17.14,15.77V309.57H125.12V162.13c0-17-12.1-17.42-12.1-17.42Z" transform="translate(-32.02 -71.02)"/><path class="cls-25" d="M131.09,170.21h35.19a1.39,1.39,0,0,0,1.44-1.33h0a1.39,1.39,0,0,0-1.44-1.32H131.09a1.39,1.39,0,0,0-1.44,1.32h0A1.39,1.39,0,0,0,131.09,170.21Z" transform="translate(-32.02 -71.02)"/><path class="cls-25" d="M131.09,174.77h35.19a1.39,1.39,0,0,0,1.44-1.32h0a1.39,1.39,0,0,0-1.44-1.33H131.09a1.39,1.39,0,0,0-1.44,1.33h0A1.39,1.39,0,0,0,131.09,174.77Z" transform="translate(-32.02 -71.02)"/><path class="cls-25" d="M131.09,179.34h35.19a1.39,1.39,0,0,0,1.44-1.33h0a1.39,1.39,0,0,0-1.44-1.32H131.09a1.39,1.39,0,0,0-1.44,1.32h0A1.39,1.39,0,0,0,131.09,179.34Z" transform="translate(-32.02 -71.02)"/><path class="cls-25" d="M131.09,183.9h35.19a1.39,1.39,0,0,0,1.44-1.33h0a1.39,1.39,0,0,0-1.44-1.32H131.09a1.39,1.39,0,0,0-1.44,1.32h0A1.39,1.39,0,0,0,131.09,183.9Z" transform="translate(-32.02 -71.02)"/><path class="cls-25" d="M157.63,165.85h8.65a1.39,1.39,0,0,0,1.44-1.33h0a1.39,1.39,0,0,0-1.44-1.32h-8.65a1.38,1.38,0,0,0-1.43,1.32h0A1.38,1.38,0,0,0,157.63,165.85Z" transform="translate(-32.02 -71.02)"/><path class="cls-25" d="M144.32,165.85H153a1.39,1.39,0,0,0,1.44-1.33h0A1.39,1.39,0,0,0,153,163.2h-8.64a1.38,1.38,0,0,0-1.44,1.32h0A1.38,1.38,0,0,0,144.32,165.85Z" transform="translate(-32.02 -71.02)"/><path class="cls-25" d="M131.09,165.85h8.65a1.39,1.39,0,0,0,1.44-1.33h0a1.39,1.39,0,0,0-1.44-1.32h-8.65a1.39,1.39,0,0,0-1.44,1.32h0A1.39,1.39,0,0,0,131.09,165.85Z" transform="translate(-32.02 -71.02)"/><path class="cls-25" d="M163.64,188.51h2.64a1.39,1.39,0,0,0,1.44-1.32h0a1.39,1.39,0,0,0-1.44-1.33h-2.64a1.39,1.39,0,0,0-1.44,1.33h0A1.39,1.39,0,0,0,163.64,188.51Z" transform="translate(-32.02 -71.02)"/><path class="cls-25" d="M139.4,188.51H159a1.39,1.39,0,0,0,1.44-1.32h0a1.39,1.39,0,0,0-1.44-1.33H139.4a1.38,1.38,0,0,0-1.44,1.33h0A1.38,1.38,0,0,0,139.4,188.51Z" transform="translate(-32.02 -71.02)"/><path class="cls-25" d="M131.09,188.51h3.73a1.38,1.38,0,0,0,1.44-1.32h0a1.38,1.38,0,0,0-1.44-1.33h-3.73a1.39,1.39,0,0,0-1.44,1.33h0A1.39,1.39,0,0,0,131.09,188.51Z" transform="translate(-32.02 -71.02)"/><path class="cls-25" d="M146.71,192.7h19.57a1.39,1.39,0,0,0,1.44-1.33h0a1.39,1.39,0,0,0-1.44-1.32H146.71a1.38,1.38,0,0,0-1.44,1.32h0A1.38,1.38,0,0,0,146.71,192.7Z" transform="translate(-32.02 -71.02)"/><path class="cls-25" d="M139.4,192.7H142a1.38,1.38,0,0,0,1.44-1.33h0a1.38,1.38,0,0,0-1.44-1.32H139.4a1.38,1.38,0,0,0-1.44,1.32h0A1.38,1.38,0,0,0,139.4,192.7Z" transform="translate(-32.02 -71.02)"/><path class="cls-25" d="M131.09,192.7h3.73a1.38,1.38,0,0,0,1.44-1.33h0a1.38,1.38,0,0,0-1.44-1.32h-3.73a1.39,1.39,0,0,0-1.44,1.32h0A1.39,1.39,0,0,0,131.09,192.7Z" transform="translate(-32.02 -71.02)"/><path class="cls-25" d="M152.72,197.19h13.56a1.39,1.39,0,0,0,1.44-1.33h0a1.39,1.39,0,0,0-1.44-1.32H152.72a1.38,1.38,0,0,0-1.44,1.32h0A1.38,1.38,0,0,0,152.72,197.19Z" transform="translate(-32.02 -71.02)"/><path class="cls-25" d="M145.41,197.19H148a1.38,1.38,0,0,0,1.44-1.33h0a1.38,1.38,0,0,0-1.44-1.32h-2.63a1.38,1.38,0,0,0-1.44,1.32h0A1.38,1.38,0,0,0,145.41,197.19Z" transform="translate(-32.02 -71.02)"/><path class="cls-25" d="M131.09,197.19h9.74a1.39,1.39,0,0,0,1.44-1.33h0a1.39,1.39,0,0,0-1.44-1.32h-9.74a1.39,1.39,0,0,0-1.44,1.32h0A1.39,1.39,0,0,0,131.09,197.19Z" transform="translate(-32.02 -71.02)"/><path class="cls-25" d="M131.09,249.59h35.19a1.39,1.39,0,0,0,1.44-1.32h0a1.39,1.39,0,0,0-1.44-1.32H131.09a1.39,1.39,0,0,0-1.44,1.32h0A1.39,1.39,0,0,0,131.09,249.59Z" transform="translate(-32.02 -71.02)"/><path class="cls-25" d="M131.09,254.16h35.19a1.39,1.39,0,0,0,1.44-1.33h0a1.39,1.39,0,0,0-1.44-1.32H131.09a1.39,1.39,0,0,0-1.44,1.32h0A1.39,1.39,0,0,0,131.09,254.16Z" transform="translate(-32.02 -71.02)"/><path class="cls-25" d="M131.09,258.72h35.19a1.39,1.39,0,0,0,1.44-1.32h0a1.39,1.39,0,0,0-1.44-1.33H131.09a1.39,1.39,0,0,0-1.44,1.33h0A1.39,1.39,0,0,0,131.09,258.72Z" transform="translate(-32.02 -71.02)"/><path class="cls-25" d="M131.09,263.28h35.19a1.39,1.39,0,0,0,1.44-1.32h0a1.39,1.39,0,0,0-1.44-1.32H131.09a1.39,1.39,0,0,0-1.44,1.32h0A1.39,1.39,0,0,0,131.09,263.28Z" transform="translate(-32.02 -71.02)"/><path class="cls-25" d="M157.63,245.24h8.65a1.39,1.39,0,0,0,1.44-1.33h0a1.39,1.39,0,0,0-1.44-1.32h-8.65a1.38,1.38,0,0,0-1.43,1.32h0A1.39,1.39,0,0,0,157.63,245.24Z" transform="translate(-32.02 -71.02)"/><path class="cls-25" d="M144.32,245.24H153a1.39,1.39,0,0,0,1.44-1.33h0a1.39,1.39,0,0,0-1.44-1.32h-8.64a1.38,1.38,0,0,0-1.44,1.32h0A1.39,1.39,0,0,0,144.32,245.24Z" transform="translate(-32.02 -71.02)"/><path class="cls-25" d="M131.09,245.24h8.65a1.39,1.39,0,0,0,1.44-1.33h0a1.39,1.39,0,0,0-1.44-1.32h-8.65a1.39,1.39,0,0,0-1.44,1.32h0A1.39,1.39,0,0,0,131.09,245.24Z" transform="translate(-32.02 -71.02)"/><path class="cls-25" d="M163.64,267.9h2.64a1.39,1.39,0,0,0,1.44-1.33h0a1.39,1.39,0,0,0-1.44-1.32h-2.64a1.39,1.39,0,0,0-1.44,1.32h0A1.39,1.39,0,0,0,163.64,267.9Z" transform="translate(-32.02 -71.02)"/><path class="cls-25" d="M139.4,267.9H159a1.39,1.39,0,0,0,1.44-1.33h0a1.39,1.39,0,0,0-1.44-1.32H139.4a1.38,1.38,0,0,0-1.44,1.32h0A1.39,1.39,0,0,0,139.4,267.9Z" transform="translate(-32.02 -71.02)"/><path class="cls-25" d="M131.09,267.9h3.73a1.39,1.39,0,0,0,1.44-1.33h0a1.38,1.38,0,0,0-1.44-1.32h-3.73a1.39,1.39,0,0,0-1.44,1.32h0A1.39,1.39,0,0,0,131.09,267.9Z" transform="translate(-32.02 -71.02)"/><path class="cls-25" d="M146.71,272.08h19.57a1.39,1.39,0,0,0,1.44-1.32h0a1.39,1.39,0,0,0-1.44-1.32H146.71a1.38,1.38,0,0,0-1.44,1.32h0A1.38,1.38,0,0,0,146.71,272.08Z" transform="translate(-32.02 -71.02)"/><path class="cls-25" d="M139.4,272.08H142a1.38,1.38,0,0,0,1.44-1.32h0a1.38,1.38,0,0,0-1.44-1.32H139.4a1.38,1.38,0,0,0-1.44,1.32h0A1.38,1.38,0,0,0,139.4,272.08Z" transform="translate(-32.02 -71.02)"/><path class="cls-25" d="M131.09,272.08h3.73a1.38,1.38,0,0,0,1.44-1.32h0a1.38,1.38,0,0,0-1.44-1.32h-3.73a1.39,1.39,0,0,0-1.44,1.32h0A1.39,1.39,0,0,0,131.09,272.08Z" transform="translate(-32.02 -71.02)"/><path class="cls-25" d="M152.72,276.58h13.56a1.39,1.39,0,0,0,1.44-1.33h0a1.39,1.39,0,0,0-1.44-1.32H152.72a1.38,1.38,0,0,0-1.44,1.32h0A1.39,1.39,0,0,0,152.72,276.58Z" transform="translate(-32.02 -71.02)"/><path class="cls-25" d="M145.41,276.58H148a1.39,1.39,0,0,0,1.44-1.33h0a1.38,1.38,0,0,0-1.44-1.32h-2.63a1.38,1.38,0,0,0-1.44,1.32h0A1.39,1.39,0,0,0,145.41,276.58Z" transform="translate(-32.02 -71.02)"/><path class="cls-25" d="M131.09,276.58h9.74a1.39,1.39,0,0,0,1.44-1.33h0a1.39,1.39,0,0,0-1.44-1.32h-9.74a1.39,1.39,0,0,0-1.44,1.32h0A1.39,1.39,0,0,0,131.09,276.58Z" transform="translate(-32.02 -71.02)"/><path class="cls-25" d="M163.64,227h2.64a1.39,1.39,0,0,0,1.44-1.33h0a1.39,1.39,0,0,0-1.44-1.32h-2.64a1.39,1.39,0,0,0-1.44,1.32h0A1.39,1.39,0,0,0,163.64,227Z" transform="translate(-32.02 -71.02)"/><path class="cls-25" d="M139.4,227H159a1.39,1.39,0,0,0,1.44-1.33h0a1.39,1.39,0,0,0-1.44-1.32H139.4a1.38,1.38,0,0,0-1.44,1.32h0A1.38,1.38,0,0,0,139.4,227Z" transform="translate(-32.02 -71.02)"/><path class="cls-25" d="M131.09,227h3.73a1.38,1.38,0,0,0,1.44-1.33h0a1.38,1.38,0,0,0-1.44-1.32h-3.73a1.39,1.39,0,0,0-1.44,1.32h0A1.39,1.39,0,0,0,131.09,227Z" transform="translate(-32.02 -71.02)"/><path class="cls-25" d="M146.71,231.21h19.57a1.39,1.39,0,0,0,1.44-1.33h0a1.39,1.39,0,0,0-1.44-1.32H146.71a1.38,1.38,0,0,0-1.44,1.32h0A1.39,1.39,0,0,0,146.71,231.21Z" transform="translate(-32.02 -71.02)"/><path class="cls-25" d="M139.4,231.21H142a1.39,1.39,0,0,0,1.44-1.33h0a1.38,1.38,0,0,0-1.44-1.32H139.4a1.38,1.38,0,0,0-1.44,1.32h0A1.39,1.39,0,0,0,139.4,231.21Z" transform="translate(-32.02 -71.02)"/><path class="cls-25" d="M131.09,231.21h3.73a1.39,1.39,0,0,0,1.44-1.33h0a1.38,1.38,0,0,0-1.44-1.32h-3.73a1.39,1.39,0,0,0-1.44,1.32h0A1.39,1.39,0,0,0,131.09,231.21Z" transform="translate(-32.02 -71.02)"/><path class="cls-25" d="M152.72,235.7h13.56a1.39,1.39,0,0,0,1.44-1.33h0a1.39,1.39,0,0,0-1.44-1.32H152.72a1.38,1.38,0,0,0-1.44,1.32h0A1.38,1.38,0,0,0,152.72,235.7Z" transform="translate(-32.02 -71.02)"/><path class="cls-25" d="M145.41,235.7H148a1.38,1.38,0,0,0,1.44-1.33h0a1.38,1.38,0,0,0-1.44-1.32h-2.63a1.38,1.38,0,0,0-1.44,1.32h0A1.38,1.38,0,0,0,145.41,235.7Z" transform="translate(-32.02 -71.02)"/><path class="cls-25" d="M131.09,235.7h9.74a1.39,1.39,0,0,0,1.44-1.33h0a1.39,1.39,0,0,0-1.44-1.32h-9.74a1.39,1.39,0,0,0-1.44,1.32h0A1.39,1.39,0,0,0,131.09,235.7Z" transform="translate(-32.02 -71.02)"/><rect class="cls-25" x="129.65" y="220.69" width="38.06" height="0.98" transform="translate(265.35 371.34) rotate(-180)"/><path class="cls-17" d="M129.14,336.68l-9.37-23.82a2.6,2.6,0,0,0-3.42-1.45L91.42,321.82A2.6,2.6,0,0,0,90,323.15L68,372.24a2.61,2.61,0,0,0,1.44,3.5l40.33,15.54a2.6,2.6,0,0,0,3.42-1.65l16-51.22A2.57,2.57,0,0,0,129.14,336.68Zm-13.31-17a3.08,3.08,0,1,1,3.39-2.73A3.08,3.08,0,0,1,115.83,319.68Z" transform="translate(-32.02 -71.02)"/><text class="cls-27" transform="translate(55.47 293.55) rotate(19.33)">$</text><rect class="cls-18" x="264.08" y="272.16" width="132.77" height="84.98" rx="9.7" transform="translate(390.74 -203.25) rotate(58.07)"/><rect class="cls-9" x="287.86" y="281.26" width="23.44" height="7.76" rx="3.88" transform="translate(351.14 -190.93) rotate(58.07)"/><rect class="cls-9" x="302.72" y="305.12" width="23.44" height="7.76" rx="3.88" transform="translate(378.4 -192.31) rotate(58.07)"/><rect class="cls-9" x="317.2" y="328.36" width="23.44" height="7.76" rx="3.88" transform="translate(404.95 -193.65) rotate(58.07)"/><rect class="cls-9" x="331.69" y="351.61" width="23.44" height="7.76" rx="3.88" transform="translate(431.5 -194.99) rotate(58.07)"/><path class="cls-28" d="M333.71,371.89l-53.2-85.38a3.9,3.9,0,0,1,1.25-5.37h0a3.91,3.91,0,0,1,5.38,1.24l53.19,85.38a3.91,3.91,0,0,1-1.25,5.38h0A3.9,3.9,0,0,1,333.71,371.89Z" transform="translate(-32.02 -71.02)"/><circle class="cls-9" cx="323.88" cy="264.25" r="10.7" transform="translate(-124.9 160.94) rotate(-34.78)"/><rect class="cls-29" x="354.42" y="327.02" width="28.99" height="20.9" rx="5.11" transform="translate(428.23 -225.12) rotate(58.07)"/><path class="cls-30" d="M380.11,347.57l.75-.47-2.12-3.41,4.48-2.79a5.46,5.46,0,0,0-.39-.81l-4.56,2.85-1.16-1.86,4.58-2.86-.47-.75-2,1.22L372,327.05l2-1.22-.47-.75-4.58,2.85-.81-1.3,4.56-2.84a4.69,4.69,0,0,0-.56-.69l-4.47,2.78-2.11-3.38-.75.47,2.11,3.38-3.22,2L361.56,325l-.75.47,2.1,3.38-3.19,2-2.11-3.38-.75.47,2.1,3.38L354.6,334a4.51,4.51,0,0,0,.37.81l4.46-2.78.81,1.3-4.48,2.79.47.75,1.78-1.11,7.25,11.65-1.78,1.11.47.75,4.48-2.79,1.16,1.85-4.46,2.78a5.48,5.48,0,0,0,.55.7l4.38-2.72,2.13,3.41.75-.47-2.13-3.41,3.2-2,2.12,3.41.76-.47-2.13-3.41,3.22-2ZM361,332.87l-.8-1.3,3.19-2,.81,1.3Zm3.95-2.46-.8-1.3,3.22-2,.8,1.3ZM366,347l-7.26-11.64,12.5-7.79,7.25,11.64Zm4.32.92L369.19,346l3.19-2,1.16,1.85Zm4-2.46-1.15-1.85,3.22-2,1.15,1.86Z" transform="translate(-32.02 -71.02)"/><polygon class="cls-18" points="90.86 302.37 75.98 322.38 83.19 322.38 100.33 307.49 90.86 302.37"/><polygon class="cls-18" points="239.79 302.37 254.67 322.38 247.47 322.38 230.32 307.49 239.79 302.37"/><polygon class="cls-15" points="89.88 303.68 96.92 307.49 79.77 322.38 83.19 322.38 100.33 307.49 90.86 302.37 89.88 303.68"/><polygon class="cls-15" points="239.79 302.37 237.36 303.68 251.26 322.38 254.67 322.38 239.79 302.37"/><rect class="cls-15" x="82.03" y="198.41" width="168.49" height="109.08" rx="3.84"/><rect class="cls-18" x="80.78" y="199.65" width="168.49" height="109.08" rx="3.84"/><rect class="cls-16" x="86.29" y="202.4" width="159.31" height="100.63"/><g class="cls-31"><polygon class="cls-19" points="102.6 336.98 83.92 336.98 140.13 181.52 158.81 181.52 102.6 336.98"/><polygon class="cls-19" points="77.94 336.98 70.66 336.98 126.87 181.52 134.15 181.52 77.94 336.98"/><polygon class="cls-19" points="113.91 336.98 110.26 336.98 166.47 181.52 170.12 181.52 113.91 336.98"/><polygon class="cls-19" points="221.07 334.44 202.39 334.44 258.6 178.98 277.29 178.98 221.07 334.44"/><polygon class="cls-19" points="196.41 334.44 189.13 334.44 245.34 178.98 252.63 178.98 196.41 334.44"/><polygon class="cls-19" points="232.38 334.44 228.73 334.44 284.94 178.98 288.59 178.98 232.38 334.44"/></g><path class="cls-17" d="M292.16,265.69a14.54,14.54,0,1,0-14.54,14.54A14.54,14.54,0,0,0,292.16,265.69Z" transform="translate(-32.02 -71.02)"/><path class="cls-20" d="M279.84,265.69l3.45-3.46a1.56,1.56,0,0,0,0-2.21,1.6,1.6,0,0,0-1.11-.46,1.58,1.58,0,0,0-1.1.46l-3.46,3.46L274.17,260a1.57,1.57,0,0,0-2.22,2.21l3.45,3.46L272,269.14a1.57,1.57,0,0,0,2.22,2.22l3.45-3.46,3.46,3.46a1.57,1.57,0,0,0,1.1.45,1.59,1.59,0,0,0,1.11-.45,1.58,1.58,0,0,0,0-2.22Z" transform="translate(-32.02 -71.02)"/><rect class="cls-15" x="234.6" y="145.27" width="37.13" height="26.96" rx="1.38"/><path class="cls-15" d="M262.16,241.36v1.38a1.38,1.38,0,0,0,1.39,1.38h43.26a1.38,1.38,0,0,0,1.39-1.38v-1.38Z" transform="translate(-32.02 -71.02)"/><path class="cls-9" d="M302.39,239.61a.3.3,0,0,1-.3.29H268.27a.29.29,0,0,1-.3-.29V217.93a.28.28,0,0,1,.3-.28h33.82a.29.29,0,0,1,.3.28Z" transform="translate(-32.02 -71.02)"/><rect class="cls-9" x="237.96" y="171.63" width="4.15" height="0.2"/><path class="cls-9" d="M267.09,242.75a.24.24,0,0,1-.24.24.24.24,0,0,1,0-.48A.24.24,0,0,1,267.09,242.75Z" transform="translate(-32.02 -71.02)"/><path class="cls-9" d="M268.29,242.75a.23.23,0,0,1-.23.24.24.24,0,0,1,0-.48A.23.23,0,0,1,268.29,242.75Z" transform="translate(-32.02 -71.02)"/><rect class="cls-15" x="173.37" y="92.88" width="27.98" height="48" rx="6.54"/><rect class="cls-9" x="176.34" y="98.8" width="22.04" height="34.52"/><path class="cls-15" d="M223.58,166.53a.63.63,0,0,1-.62.63H215.8a.63.63,0,0,1-.63-.63h0a.63.63,0,0,1,.63-.62H223a.62.62,0,0,1,.62.62Z" transform="translate(-32.02 -71.02)"/><path class="cls-9" d="M223,167.29H215.8a.76.76,0,1,1,0-1.52H223a.76.76,0,0,1,0,1.52ZM215.8,166a.49.49,0,0,0,0,1H223a.49.49,0,0,0,0-1Z" transform="translate(-32.02 -71.02)"/><rect class="cls-9" x="185.65" y="135.78" width="3.32" height="2.64" rx="0.46"/><rect class="cls-15" x="186.06" y="136.19" width="2.5" height="1.83" rx="0.05"/><path class="cls-9" d="M228.87,166.53a1,1,0,1,0-1,1A1,1,0,0,0,228.87,166.53Z" transform="translate(-32.02 -71.02)"/><path class="cls-15" d="M228.58,166.53a.67.67,0,1,1-.67-.66A.66.66,0,0,1,228.58,166.53Z" transform="translate(-32.02 -71.02)"/></g></svg>