<svg id="Layer_1" data-name="Layer 1" xmlns="http://www.w3.org/2000/svg" xmlns:xlink="http://www.w3.org/1999/xlink" viewBox="0 0 374.88 263.28"><defs><style>.cls-1{fill:#fff;}.cls-2,.cls-5{font-size:9.24px;fill:#d11328;}.cls-2,.cls-5,.cls-6,.cls-8,.cls-9{font-family:Lato-Regular, Lato;}.cls-3{letter-spacing:-0.02em;}.cls-4{letter-spacing:0em;}.cls-5{letter-spacing:-0.08em;}.cls-6,.cls-8,.cls-9{font-size:15.39px;}.cls-11,.cls-6{fill:#d11227;}.cls-7{letter-spacing:-0.1em;}.cls-8{fill:#1d1d1b;}.cls-12,.cls-9{fill:#15151d;}.cls-10{fill:none;}</style></defs><image width="1300" height="913" transform="translate(0 0) scale(0.29 0.29)" xlink:href="../Cloud/Full%20stack%20project/Images/E-commerce.png"/><rect class="cls-1" x="8.44" y="186.58" width="113.53" height="21.96"/><text class="cls-2" transform="translate(20.13 207.49)">Upg<tspan class="cls-3" x="16.56" y="0">r</tspan><tspan class="cls-4" x="20.11" y="0">ade</tspan></text><text class="cls-5" transform="translate(56 207.49)">Y<tspan class="cls-4" x="5.07" y="0">our</tspan></text><text class="cls-2" transform="translate(76.32 207.84)">Gadgets</text><text class="cls-6" transform="translate(50.18 196.82)"><tspan class="cls-7">T</tspan><tspan x="7.47" y="0">ech</tspan></text><text class="cls-8" transform="translate(83.72 196.93)">Store</text><text class="cls-9" transform="translate(21.95 196.75)">saro</text><path class="cls-10" d="M139.28,423.59a.64.64,0,0,1,0,.07h0a.06.06,0,0,1,0,0H138v.16h1.28a.53.53,0,0,0,.11.21s0,0,0,0l.06,0,0,0,0,0,0,0h.2l.13,0h0l.11-.07h0l0,0,0,0h0l0,0h0a.14.14,0,0,0,0-.06h0s0,0,0,0h0a.43.43,0,0,0,0-.05h0v-.06h0a.48.48,0,0,0-.86-.3h0a.57.57,0,0,0-.08.13Zm.46-.15a.33.33,0,0,1,.32.32.32.32,0,0,1-.32.32.32.32,0,0,1-.32-.32A.32.32,0,0,1,139.74,423.44Z" transform="translate(-123.92 -230.97)"/><path class="cls-10" d="M139.28,421.08s0,.05,0,.07h0a0,0,0,0,1,0,0H138v.17h1.29a.64.64,0,0,0,0,.07h0l.08.12h0l0,0h0l.1.07h0l.05,0h.18a.3.3,0,0,0,.13,0h.07l.06,0h0l0,0a.39.39,0,0,0,.11-.17.14.14,0,0,0,0-.06.07.07,0,0,0,0-.05.17.17,0,0,0,0-.07h0a.49.49,0,0,0-.48-.49h-.12l-.06,0h0l0,0,0,0,0,0,0,0s0,0,0,0h0l-.08.13Zm.46-.15a.32.32,0,0,1,0,.64.32.32,0,1,1,0-.64Z" transform="translate(-123.92 -230.97)"/><path class="cls-10" d="M139.05,422.62h1.33a.48.48,0,0,0,.47.37H141l.07,0h0l0,0h0l0,0,0,0,0,0h0l0,0v0l0,0,0-.06h0s0,0,0-.05h0a.06.06,0,0,0,0,0v0a.43.43,0,0,0,0-.05h0a.49.49,0,0,0-.49-.49.48.48,0,0,0-.48.43h-1.32Zm1.79-.43a.31.31,0,0,1,.33.31.33.33,0,0,1-.31.33.32.32,0,0,1-.33-.32A.31.31,0,0,1,140.84,422.19Z" transform="translate(-123.92 -230.97)"/><path class="cls-11" d="M140.29,427.21V425.5c-.11,0-.23.06-.34.09v1.62a.59.59,0,0,0-.44.58.61.61,0,1,0,.78-.58Z" transform="translate(-123.92 -230.97)"/><path class="cls-11" d="M142.63,425.8a.61.61,0,0,0-.58.44h-.41V424.7h0l-.31.28v1.6h.75a.61.61,0,1,0,.58-.78Z" transform="translate(-123.92 -230.97)"/><path class="cls-12" d="M136.22,422.5a3.13,3.13,0,0,1,3.14-3.14V416.7c-.23,0-.45,0-.67,0l-.34,2-.71.26-1.57-1.28a5.89,5.89,0,0,0-1.24,1.15h0l1.21,1.64-.31.71-2.1.19,0,.31c0,.06,0,.12,0,.18V422a6.33,6.33,0,0,0,0,1c0,.14,0,.33.1.56h0l.85.08,1.16.11.32.7-1.15,1.61,0,0h0v0h0a5.56,5.56,0,0,0,1.29,1.18l1.55-1.29.72.27.34,2v0l.63,0v-2.65A3.14,3.14,0,0,1,136.22,422.5Z" transform="translate(-123.92 -230.97)"/><path class="cls-11" d="M133.59,422a4.24,4.24,0,0,0,0,.51c0,.17,0,.34,0,.5h0A6.33,6.33,0,0,1,133.59,422Z" transform="translate(-123.92 -230.97)"/><path class="cls-11" d="M140,417.84v1.56c.11,0,.23.05.34.09v-1.65a.62.62,0,0,0,.44-.59.61.61,0,1,0-.78.59Z" transform="translate(-123.92 -230.97)"/><path class="cls-11" d="M144.6,421.89a.6.6,0,0,0-.58.44h-1.51v.35H144a.6.6,0,0,0,.58.44.62.62,0,0,0,0-1.23Z" transform="translate(-123.92 -230.97)"/><path class="cls-11" d="M141.59,420.26v-1.54h.4a.62.62,0,0,0,.59.44.61.61,0,0,0,.61-.61.61.61,0,0,0-.61-.61.62.62,0,0,0-.59.43h-.75V420a3.24,3.24,0,0,1,.34.29Z" transform="translate(-123.92 -230.97)"/><path class="cls-11" d="M143.59,420.56V421h-1.47a3.54,3.54,0,0,1,.16.34h1.65v-.75a.61.61,0,1,0-.78-.58A.59.59,0,0,0,143.59,420.56Z" transform="translate(-123.92 -230.97)"/><path class="cls-11" d="M143.91,424.47v-.75h-1.65a2.26,2.26,0,0,1-.17.35h1.48v.4a.62.62,0,0,0-.44.59.61.61,0,1,0,.78-.59Z" transform="translate(-123.92 -230.97)"/><path class="cls-12" d="M139.74,421.57a.32.32,0,0,0,0-.64.32.32,0,1,0,0,.64Z" transform="translate(-123.92 -230.97)"/><path class="cls-12" d="M139.74,424.08a.32.32,0,0,0,.32-.32.33.33,0,0,0-.32-.32.32.32,0,0,0-.32.32A.32.32,0,0,0,139.74,424.08Z" transform="translate(-123.92 -230.97)"/><path class="cls-12" d="M140.86,422.83a.33.33,0,0,0,.31-.33.31.31,0,0,0-.33-.31.31.31,0,0,0-.31.32A.32.32,0,0,0,140.86,422.83Z" transform="translate(-123.92 -230.97)"/><path class="cls-11" d="M139.72,421.73h0a.31.31,0,0,0,.13,0,.3.3,0,0,1-.13,0Z" transform="translate(-123.92 -230.97)"/><polygon class="cls-11" points="16.3 190.27 16.3 190.27 16.3 190.28 16.3 190.27"/><path class="cls-11" d="M141.33,422.56a.43.43,0,0,0,0-.05h0A.43.43,0,0,1,141.33,422.56Z" transform="translate(-123.92 -230.97)"/><path class="cls-11" d="M139.37,424.08a.53.53,0,0,1-.11-.21H138v-.16h1.27a.06.06,0,0,0,0,0h0a.64.64,0,0,0,0-.07h0a.57.57,0,0,1,.08-.13v-.84h-.31v-.17h.31v-.88l-.08-.12h0a.64.64,0,0,1,0-.07H138v-.17h1.27a0,0,0,0,0,0,0h0s0,0,0-.07h0l.08-.13v-1.41a3,3,0,0,0,0,6v-1.41Z" transform="translate(-123.92 -230.97)"/><path class="cls-11" d="M139.69,424.24h0Z" transform="translate(-123.92 -230.97)"/><path class="cls-11" d="M140.38,422.62h0a.48.48,0,0,0,.47.37h0A.48.48,0,0,1,140.38,422.62Z" transform="translate(-123.92 -230.97)"/><path class="cls-11" d="M140.22,423.82h0a.43.43,0,0,1,0,.05A.43.43,0,0,0,140.22,423.82Z" transform="translate(-123.92 -230.97)"/><path class="cls-11" d="M140.22,423.82h0v-.06h0Z" transform="translate(-123.92 -230.97)"/><polygon class="cls-11" points="16.21 193.07 16.21 193.07 16.2 193.07 16.21 193.07"/><polygon class="cls-11" points="16.27 192.95 16.27 192.95 16.27 192.95 16.27 192.95"/><path class="cls-11" d="M140.16,424h0v0h0Z" transform="translate(-123.92 -230.97)"/><polygon class="cls-11" points="15.58 190.7 15.58 190.7 15.58 190.7 15.58 190.7"/><path class="cls-12" d="M142.33,422.51h0a3,3,0,0,0-2.82-3h-.15v1.41h0s0,0,0,0l0,0,0,0,0,0,0,0h0l.06,0h.12a.49.49,0,0,1,.48.49h0a.17.17,0,0,1,0,.07.07.07,0,0,1,0,.05.14.14,0,0,1,0,.06.39.39,0,0,1-.11.17l0,0h0l-.06,0h-.07a.31.31,0,0,1-.13,0h-.18l-.05,0h0l-.1-.07h0l0,0h0v.88h1a.48.48,0,0,1,.48-.43.49.49,0,0,1,.49.49h0a.43.43,0,0,1,0,.05v0a.06.06,0,0,1,0,0h0s0,0,0,.05h0l0,.06,0,0v0l0,0h0l0,0,0,0,0,0h0l0,0h0l-.07,0h-.11a.48.48,0,0,1-.47-.37h-1v.84h0a.48.48,0,0,1,.86.3h0v.06h0a.43.43,0,0,1,0,.05h0s0,0,0,0h0a.14.14,0,0,1,0,.06h0v0h0l0,0h0l0,0,0,0h0l-.11.07h0l-.13,0h-.2l0,0,0,0,0,0-.06,0s0,0,0,0h0v1.41h0A3,3,0,0,0,142.33,422.51Z" transform="translate(-123.92 -230.97)"/></svg>